M48
; DRILL file {KiCad 6.0.7-f9a2dced07~116~ubuntu20.04.1} date Thu 13 Oct 2022 10:08:00 PM MDT
; FORMAT={-:-/ absolute / metric / decimal}
; #@! TF.CreationDate,2022-10-13T22:08:00-06:00
; #@! TF.GenerationSoftware,Kicad,Pcbnew,6.0.7-f9a2dced07~116~ubuntu20.04.1
; #@! TF.FileFunction,Plated,1,2,PTH
FMAT,2
METRIC
; #@! TA.AperFunction,Plated,PTH,ViaDrill
T1C0.400
; #@! TA.AperFunction,Plated,PTH,ViaDrill
T2C0.600
; #@! TA.AperFunction,Plated,PTH,ComponentDrill
T3C0.800
; #@! TA.AperFunction,Plated,PTH,ComponentDrill
T4C0.900
; #@! TA.AperFunction,Plated,PTH,ComponentDrill
T5C1.000
; #@! TA.AperFunction,Plated,PTH,ComponentDrill
T6C1.100
; #@! TA.AperFunction,Plated,PTH,ComponentDrill
T7C1.200
; #@! TA.AperFunction,Plated,PTH,ComponentDrill
T8C1.295
; #@! TA.AperFunction,Plated,PTH,ComponentDrill
T9C2.000
; #@! TA.AperFunction,Plated,PTH,ComponentDrill
T10C2.500
%
G90
G05
T1
X101.0Y-121.6
X101.1Y-128.9
X101.1Y-136.7
X109.0Y-101.4
X109.2Y-141.3
X112.5Y-138.0
X117.1Y-149.6
X117.1Y-152.2
X117.1Y-154.8
X117.6Y-148.8
X119.4Y-144.1
X119.5Y-139.1
X120.2Y-140.1
X120.5Y-150.2
X121.1Y-154.7
X121.7Y-152.1
X121.9Y-117.0
X122.0Y-107.8
X125.0Y-150.4
X125.3Y-153.9
X126.3Y-143.2
X127.3Y-120.4
X127.3Y-144.0
X127.9Y-121.3
X128.6Y-119.0
X128.9Y-110.3
X129.0Y-130.7
X129.0Y-150.6
X129.1Y-122.4
X129.1Y-153.5
X130.9Y-151.8
X131.6Y-107.3
X131.6Y-140.0
X132.6Y-158.9
X132.7Y-153.5
X132.8Y-150.6
X133.7Y-134.1
X133.8Y-122.7
X133.9Y-119.1
X134.1Y-111.5
X136.1Y-109.4
X136.5Y-133.5
X136.5Y-150.6
X138.475Y-148.5
X138.8Y-131.4
X138.8Y-149.6
X139.1Y-122.6
X140.5Y-141.4
X140.991Y-134.904
X141.9Y-145.0
X141.9Y-147.5
X141.9Y-150.2
X142.0Y-146.4
X142.0Y-154.0
X142.0Y-155.3
X142.1Y-133.6
X142.824Y-135.697
X143.273Y-135.036
X144.1Y-158.3
X144.8Y-151.9
X144.9Y-148.8
X145.1Y-133.2
X145.2Y-141.3
X146.2Y-134.8
X146.4Y-156.2
X146.5Y-153.2
X147.4Y-147.7
X147.9Y-101.5
X147.9Y-150.3
X148.8Y-144.0
X149.3Y-148.2
X150.2Y-135.0
X150.4Y-142.2
X151.3Y-156.2
X151.8Y-165.6
X153.2Y-154.2
X153.4Y-134.2
X153.7Y-150.8
X154.4Y-142.2
X154.4Y-143.0
X155.0Y-163.41
X155.1Y-164.21
X155.4Y-148.0
X155.7Y-113.7
X155.8Y-163.41
X155.9Y-134.9
X156.7Y-163.61
X157.0Y-160.4
X157.3Y-152.7
X157.7Y-139.1
X160.951Y-152.821
X161.1Y-134.2
X161.1Y-139.1
X161.2Y-158.7
X161.7Y-101.5
X162.8Y-156.6
X163.5Y-134.9
X163.9Y-157.8
X165.7Y-139.1
X165.7Y-170.1
X165.9Y-148.0
X167.3Y-127.4
X168.8Y-142.6
X171.0Y-159.2
X172.3Y-139.1
X172.6Y-158.4
X174.4Y-157.174
X174.4Y-160.8
X175.9Y-141.3
X175.925Y-160.575
X176.7Y-144.0
X176.9Y-159.8
X177.3Y-140.6
X177.4Y-152.2
X178.4Y-113.7
X178.6Y-147.2
X178.6Y-162.1
X178.6Y-169.125
X178.7Y-141.3
X178.951Y-148.0
X179.1Y-139.1
X179.3Y-164.6
X179.6Y-145.0
X180.1Y-136.1
X180.1Y-146.3
X181.0Y-147.8
X181.2Y-132.4
X181.3Y-144.0
X181.8Y-169.3
X181.9Y-159.9
X182.1Y-147.2
X183.8Y-152.1
X183.9Y-136.1
X184.175Y-144.7
X184.486Y-150.688
X184.633Y-158.374
X184.9Y-159.2
X185.2Y-151.3
X185.325Y-141.4
X185.37Y-152.081
X186.0Y-168.9
X186.2Y-156.4
X186.8Y-157.1
X187.1Y-142.9
X187.2Y-153.7
X187.675Y-145.297
X187.7Y-157.8
X188.105Y-144.155
X188.3Y-164.6
X188.4Y-115.6
X188.813Y-143.625
X188.9Y-121.2
X189.7Y-139.1
X190.6Y-146.4
X190.7Y-107.7
X190.8Y-124.5
X191.6Y-115.6
X191.6Y-137.9
X192.4Y-146.4
X193.7Y-156.5
X193.9Y-140.4
X194.8Y-146.4
X195.4Y-145.4
X195.4Y-159.7
X195.5Y-169.0
X195.914Y-143.625
X196.0Y-161.1
X196.6Y-115.6
X196.9Y-144.2
X196.9Y-160.3
X197.9Y-144.7
X198.3Y-153.1
X198.822Y-150.6
X199.6Y-148.4
X200.1Y-121.1
X200.4Y-153.1
X200.85Y-122.05
X200.85Y-137.7
X201.4Y-151.2
X202.7Y-164.9
X204.7Y-139.2
X206.2Y-143.3
X206.9Y-101.9
X207.4Y-141.4
X207.9Y-170.8
X214.0Y-163.2
X214.2Y-139.6
X214.8Y-108.4
X214.9Y-128.7
T2
X104.0Y-109.0
X104.2Y-147.0
X106.6Y-145.6
X107.0Y-111.0
X111.0Y-129.0
X112.8Y-122.5
X113.367Y-132.533
X113.4Y-123.9
X115.6Y-128.9
X118.5Y-124.0
X119.4Y-145.5
X119.8Y-122.5
X137.4Y-139.1
X169.068Y-102.968
X170.8Y-105.7
X184.968Y-102.968
X185.7Y-138.0
X186.167Y-105.7
X191.5Y-139.1
X199.52Y-126.72
X199.7Y-145.0
X206.6Y-137.7
X208.5Y-151.8
X210.3Y-151.0
X213.4Y-113.4
T3
X169.1Y-169.8
X171.6Y-169.8
T4
X152.825Y-167.86
X157.825Y-167.86
T5
X103.81Y-113.975
X103.81Y-116.515
X103.81Y-119.055
X105.8Y-154.632
X105.8Y-159.632
X110.8Y-127.3
X110.8Y-132.3
X113.7Y-142.975
X113.7Y-145.515
X113.7Y-148.055
X113.7Y-150.595
X113.7Y-153.135
X113.7Y-155.675
X113.7Y-158.215
X129.8Y-102.968
X129.8Y-107.968
X138.92Y-107.88
X138.92Y-110.42
X138.92Y-112.96
X138.92Y-115.5
X152.587Y-126.1
X155.127Y-126.1
X160.387Y-126.1
X162.927Y-126.1
X167.375Y-152.79
X169.915Y-152.79
X170.954Y-126.345
X170.954Y-128.885
X170.954Y-131.425
X172.455Y-152.79
X174.805Y-130.29
X177.1Y-162.08
X177.1Y-164.62
X177.1Y-167.16
X177.1Y-169.7
X177.345Y-130.29
X179.885Y-130.29
X181.95Y-162.4
X182.425Y-130.29
X184.49Y-162.4
X187.03Y-162.4
X188.3Y-126.72
X188.3Y-129.26
X188.3Y-131.8
X189.57Y-162.4
X192.02Y-129.3
X192.11Y-162.4
X194.56Y-129.3
X194.65Y-162.4
X197.1Y-129.3
X202.6Y-127.82
X202.6Y-130.36
X202.6Y-132.9
X203.8Y-145.045
X203.8Y-147.585
X203.8Y-150.125
X206.42Y-130.3
X207.645Y-148.21
X208.275Y-110.79
X208.96Y-130.3
X210.185Y-148.21
X210.815Y-110.79
X211.5Y-130.3
X212.725Y-148.21
X213.355Y-110.79
T6
X191.62Y-104.85
X191.62Y-119.35
X194.12Y-119.35
X196.62Y-104.85
X196.62Y-119.35
T7
X151.825Y-170.56
X158.825Y-170.56
T8
X120.875Y-127.529
X120.875Y-132.533
X124.862Y-127.529
X124.862Y-132.533
T9
X112.29Y-105.7
X119.91Y-105.7
T10
X202.7Y-159.8
X207.7Y-159.8
T9
X188.52Y-111.6G85X188.52Y-112.1
G05
X199.72Y-111.6G85X199.72Y-112.1
G05
T0
M30
