G04 #@! TF.GenerationSoftware,KiCad,Pcbnew,6.0.7-f9a2dced07~116~ubuntu20.04.1*
G04 #@! TF.CreationDate,2022-10-13T22:07:35-06:00*
G04 #@! TF.ProjectId,kelvin-kontroller,6b656c76-696e-42d6-9b6f-6e74726f6c6c,rev?*
G04 #@! TF.SameCoordinates,Original*
G04 #@! TF.FileFunction,Legend,Top*
G04 #@! TF.FilePolarity,Positive*
%FSLAX46Y46*%
G04 Gerber Fmt 4.6, Leading zero omitted, Abs format (unit mm)*
G04 Created by KiCad (PCBNEW 6.0.7-f9a2dced07~116~ubuntu20.04.1) date 2022-10-13 22:07:35*
%MOMM*%
%LPD*%
G01*
G04 APERTURE LIST*
%ADD10C,0.150000*%
%ADD11C,0.200000*%
%ADD12C,0.100000*%
%ADD13C,0.120000*%
%ADD14C,3.200000*%
%ADD15C,1.000000*%
%ADD16C,3.400000*%
%ADD17R,1.700000X1.700000*%
%ADD18O,1.700000X1.700000*%
%ADD19C,2.000000*%
%ADD20O,3.000000X3.500000*%
%ADD21R,2.000000X2.000000*%
%ADD22C,1.408000*%
%ADD23C,1.800000*%
%ADD24C,1.803400*%
%ADD25C,1.600000*%
%ADD26C,2.900000*%
G04 APERTURE END LIST*
D10*
X119380952Y-101452380D02*
X118809523Y-101452380D01*
X119095238Y-101452380D02*
X119095238Y-100452380D01*
X119000000Y-100595238D01*
X118904761Y-100690476D01*
X118809523Y-100738095D01*
X119761904Y-100547619D02*
X119809523Y-100500000D01*
X119904761Y-100452380D01*
X120142857Y-100452380D01*
X120238095Y-100500000D01*
X120285714Y-100547619D01*
X120333333Y-100642857D01*
X120333333Y-100738095D01*
X120285714Y-100880952D01*
X119714285Y-101452380D01*
X120333333Y-101452380D01*
X120619047Y-100452380D02*
X120952380Y-101452380D01*
X121285714Y-100452380D01*
X111538095Y-100500000D02*
X111442857Y-100452380D01*
X111300000Y-100452380D01*
X111157142Y-100500000D01*
X111061904Y-100595238D01*
X111014285Y-100690476D01*
X110966666Y-100880952D01*
X110966666Y-101023809D01*
X111014285Y-101214285D01*
X111061904Y-101309523D01*
X111157142Y-101404761D01*
X111300000Y-101452380D01*
X111395238Y-101452380D01*
X111538095Y-101404761D01*
X111585714Y-101357142D01*
X111585714Y-101023809D01*
X111395238Y-101023809D01*
X112014285Y-101452380D02*
X112014285Y-100452380D01*
X112585714Y-101452380D01*
X112585714Y-100452380D01*
X113061904Y-101452380D02*
X113061904Y-100452380D01*
X113300000Y-100452380D01*
X113442857Y-100500000D01*
X113538095Y-100595238D01*
X113585714Y-100690476D01*
X113633333Y-100880952D01*
X113633333Y-101023809D01*
X113585714Y-101214285D01*
X113538095Y-101309523D01*
X113442857Y-101404761D01*
X113300000Y-101452380D01*
X113061904Y-101452380D01*
X133885714Y-108504761D02*
X134028571Y-108552380D01*
X134266666Y-108552380D01*
X134361904Y-108504761D01*
X134409523Y-108457142D01*
X134457142Y-108361904D01*
X134457142Y-108266666D01*
X134409523Y-108171428D01*
X134361904Y-108123809D01*
X134266666Y-108076190D01*
X134076190Y-108028571D01*
X133980952Y-107980952D01*
X133933333Y-107933333D01*
X133885714Y-107838095D01*
X133885714Y-107742857D01*
X133933333Y-107647619D01*
X133980952Y-107600000D01*
X134076190Y-107552380D01*
X134314285Y-107552380D01*
X134457142Y-107600000D01*
X134885714Y-108552380D02*
X134885714Y-107552380D01*
X135123809Y-107552380D01*
X135266666Y-107600000D01*
X135361904Y-107695238D01*
X135409523Y-107790476D01*
X135457142Y-107980952D01*
X135457142Y-108123809D01*
X135409523Y-108314285D01*
X135361904Y-108409523D01*
X135266666Y-108504761D01*
X135123809Y-108552380D01*
X134885714Y-108552380D01*
X135838095Y-108266666D02*
X136314285Y-108266666D01*
X135742857Y-108552380D02*
X136076190Y-107552380D01*
X136409523Y-108552380D01*
X133909523Y-111104761D02*
X134052380Y-111152380D01*
X134290476Y-111152380D01*
X134385714Y-111104761D01*
X134433333Y-111057142D01*
X134480952Y-110961904D01*
X134480952Y-110866666D01*
X134433333Y-110771428D01*
X134385714Y-110723809D01*
X134290476Y-110676190D01*
X134100000Y-110628571D01*
X134004761Y-110580952D01*
X133957142Y-110533333D01*
X133909523Y-110438095D01*
X133909523Y-110342857D01*
X133957142Y-110247619D01*
X134004761Y-110200000D01*
X134100000Y-110152380D01*
X134338095Y-110152380D01*
X134480952Y-110200000D01*
X135480952Y-111057142D02*
X135433333Y-111104761D01*
X135290476Y-111152380D01*
X135195238Y-111152380D01*
X135052380Y-111104761D01*
X134957142Y-111009523D01*
X134909523Y-110914285D01*
X134861904Y-110723809D01*
X134861904Y-110580952D01*
X134909523Y-110390476D01*
X134957142Y-110295238D01*
X135052380Y-110200000D01*
X135195238Y-110152380D01*
X135290476Y-110152380D01*
X135433333Y-110200000D01*
X135480952Y-110247619D01*
X136385714Y-111152380D02*
X135909523Y-111152380D01*
X135909523Y-110152380D01*
X133961904Y-112552380D02*
X134580952Y-112552380D01*
X134247619Y-112933333D01*
X134390476Y-112933333D01*
X134485714Y-112980952D01*
X134533333Y-113028571D01*
X134580952Y-113123809D01*
X134580952Y-113361904D01*
X134533333Y-113457142D01*
X134485714Y-113504761D01*
X134390476Y-113552380D01*
X134104761Y-113552380D01*
X134009523Y-113504761D01*
X133961904Y-113457142D01*
X134866666Y-112552380D02*
X135200000Y-113552380D01*
X135533333Y-112552380D01*
X135771428Y-112552380D02*
X136390476Y-112552380D01*
X136057142Y-112933333D01*
X136200000Y-112933333D01*
X136295238Y-112980952D01*
X136342857Y-113028571D01*
X136390476Y-113123809D01*
X136390476Y-113361904D01*
X136342857Y-113457142D01*
X136295238Y-113504761D01*
X136200000Y-113552380D01*
X135914285Y-113552380D01*
X135819047Y-113504761D01*
X135771428Y-113457142D01*
X134338095Y-115000000D02*
X134242857Y-114952380D01*
X134100000Y-114952380D01*
X133957142Y-115000000D01*
X133861904Y-115095238D01*
X133814285Y-115190476D01*
X133766666Y-115380952D01*
X133766666Y-115523809D01*
X133814285Y-115714285D01*
X133861904Y-115809523D01*
X133957142Y-115904761D01*
X134100000Y-115952380D01*
X134195238Y-115952380D01*
X134338095Y-115904761D01*
X134385714Y-115857142D01*
X134385714Y-115523809D01*
X134195238Y-115523809D01*
X134814285Y-115952380D02*
X134814285Y-114952380D01*
X135385714Y-115952380D01*
X135385714Y-114952380D01*
X135861904Y-115952380D02*
X135861904Y-114952380D01*
X136100000Y-114952380D01*
X136242857Y-115000000D01*
X136338095Y-115095238D01*
X136385714Y-115190476D01*
X136433333Y-115380952D01*
X136433333Y-115523809D01*
X136385714Y-115714285D01*
X136338095Y-115809523D01*
X136242857Y-115904761D01*
X136100000Y-115952380D01*
X135861904Y-115952380D01*
D11*
X129961904Y-144504761D02*
X129961904Y-142504761D01*
X130152380Y-143742857D02*
X130723809Y-144504761D01*
X130723809Y-143171428D02*
X129961904Y-143933333D01*
X132342857Y-144409523D02*
X132152380Y-144504761D01*
X131771428Y-144504761D01*
X131580952Y-144409523D01*
X131485714Y-144219047D01*
X131485714Y-143457142D01*
X131580952Y-143266666D01*
X131771428Y-143171428D01*
X132152380Y-143171428D01*
X132342857Y-143266666D01*
X132438095Y-143457142D01*
X132438095Y-143647619D01*
X131485714Y-143838095D01*
X133580952Y-144504761D02*
X133390476Y-144409523D01*
X133295238Y-144219047D01*
X133295238Y-142504761D01*
X134152380Y-143171428D02*
X134628571Y-144504761D01*
X135104761Y-143171428D01*
X135866666Y-144504761D02*
X135866666Y-143171428D01*
X135866666Y-142504761D02*
X135771428Y-142600000D01*
X135866666Y-142695238D01*
X135961904Y-142600000D01*
X135866666Y-142504761D01*
X135866666Y-142695238D01*
X136819047Y-143171428D02*
X136819047Y-144504761D01*
X136819047Y-143361904D02*
X136914285Y-143266666D01*
X137104761Y-143171428D01*
X137390476Y-143171428D01*
X137580952Y-143266666D01*
X137676190Y-143457142D01*
X137676190Y-144504761D01*
X138628571Y-143742857D02*
X140152380Y-143742857D01*
X141104761Y-144504761D02*
X141104761Y-142504761D01*
X141295238Y-143742857D02*
X141866666Y-144504761D01*
X141866666Y-143171428D02*
X141104761Y-143933333D01*
X143009523Y-144504761D02*
X142819047Y-144409523D01*
X142723809Y-144314285D01*
X142628571Y-144123809D01*
X142628571Y-143552380D01*
X142723809Y-143361904D01*
X142819047Y-143266666D01*
X143009523Y-143171428D01*
X143295238Y-143171428D01*
X143485714Y-143266666D01*
X143580952Y-143361904D01*
X143676190Y-143552380D01*
X143676190Y-144123809D01*
X143580952Y-144314285D01*
X143485714Y-144409523D01*
X143295238Y-144504761D01*
X143009523Y-144504761D01*
X144533333Y-143171428D02*
X144533333Y-144504761D01*
X144533333Y-143361904D02*
X144628571Y-143266666D01*
X144819047Y-143171428D01*
X145104761Y-143171428D01*
X145295238Y-143266666D01*
X145390476Y-143457142D01*
X145390476Y-144504761D01*
X146057142Y-143171428D02*
X146819047Y-143171428D01*
X146342857Y-142504761D02*
X146342857Y-144219047D01*
X146438095Y-144409523D01*
X146628571Y-144504761D01*
X146819047Y-144504761D01*
X147485714Y-144504761D02*
X147485714Y-143171428D01*
X147485714Y-143552380D02*
X147580952Y-143361904D01*
X147676190Y-143266666D01*
X147866666Y-143171428D01*
X148057142Y-143171428D01*
X149009523Y-144504761D02*
X148819047Y-144409523D01*
X148723809Y-144314285D01*
X148628571Y-144123809D01*
X148628571Y-143552380D01*
X148723809Y-143361904D01*
X148819047Y-143266666D01*
X149009523Y-143171428D01*
X149295238Y-143171428D01*
X149485714Y-143266666D01*
X149580952Y-143361904D01*
X149676190Y-143552380D01*
X149676190Y-144123809D01*
X149580952Y-144314285D01*
X149485714Y-144409523D01*
X149295238Y-144504761D01*
X149009523Y-144504761D01*
X150819047Y-144504761D02*
X150628571Y-144409523D01*
X150533333Y-144219047D01*
X150533333Y-142504761D01*
X151866666Y-144504761D02*
X151676190Y-144409523D01*
X151580952Y-144219047D01*
X151580952Y-142504761D01*
X153390476Y-144409523D02*
X153200000Y-144504761D01*
X152819047Y-144504761D01*
X152628571Y-144409523D01*
X152533333Y-144219047D01*
X152533333Y-143457142D01*
X152628571Y-143266666D01*
X152819047Y-143171428D01*
X153200000Y-143171428D01*
X153390476Y-143266666D01*
X153485714Y-143457142D01*
X153485714Y-143647619D01*
X152533333Y-143838095D01*
X154342857Y-144504761D02*
X154342857Y-143171428D01*
X154342857Y-143552380D02*
X154438095Y-143361904D01*
X154533333Y-143266666D01*
X154723809Y-143171428D01*
X154914285Y-143171428D01*
X156914285Y-143171428D02*
X157390476Y-144504761D01*
X157866666Y-143171428D01*
X159676190Y-144504761D02*
X158533333Y-144504761D01*
X159104761Y-144504761D02*
X159104761Y-142504761D01*
X158914285Y-142790476D01*
X158723809Y-142980952D01*
X158533333Y-143076190D01*
X160533333Y-144314285D02*
X160628571Y-144409523D01*
X160533333Y-144504761D01*
X160438095Y-144409523D01*
X160533333Y-144314285D01*
X160533333Y-144504761D01*
X161866666Y-142504761D02*
X162057142Y-142504761D01*
X162247619Y-142600000D01*
X162342857Y-142695238D01*
X162438095Y-142885714D01*
X162533333Y-143266666D01*
X162533333Y-143742857D01*
X162438095Y-144123809D01*
X162342857Y-144314285D01*
X162247619Y-144409523D01*
X162057142Y-144504761D01*
X161866666Y-144504761D01*
X161676190Y-144409523D01*
X161580952Y-144314285D01*
X161485714Y-144123809D01*
X161390476Y-143742857D01*
X161390476Y-143266666D01*
X161485714Y-142885714D01*
X161580952Y-142695238D01*
X161676190Y-142600000D01*
X161866666Y-142504761D01*
D12*
X136920000Y-102200000D02*
X178920000Y-102200000D01*
X178920000Y-102200000D02*
X178920000Y-121200000D01*
X178920000Y-121200000D02*
X136920000Y-121200000D01*
X136920000Y-121200000D02*
X136920000Y-102200000D01*
D10*
G04 #@! TO.C,BZ1*
X211700000Y-159800000D02*
G75*
G03*
X211700000Y-159800000I-6500000J0D01*
G01*
D13*
G04 #@! TO.C,J13*
X140250000Y-116830000D02*
X138920000Y-116830000D01*
X137590000Y-114230000D02*
X137590000Y-106550000D01*
X140250000Y-114230000D02*
X140250000Y-106550000D01*
X140250000Y-114230000D02*
X137590000Y-114230000D01*
X140250000Y-115500000D02*
X140250000Y-116830000D01*
X140250000Y-106550000D02*
X137590000Y-106550000D01*
D10*
G04 #@! TO.C,SW3*
X186620000Y-120650000D02*
X186620000Y-103550000D01*
X186620000Y-103550000D02*
X201420000Y-103550000D01*
X201420000Y-103550000D02*
X201620000Y-120650000D01*
X201620000Y-120650000D02*
X186620000Y-120650000D01*
G04 #@! TD*
%LPC*%
D14*
G04 #@! TO.C,H2*
X212500000Y-103500000D03*
G04 #@! TD*
G04 #@! TO.C,H4*
X103500000Y-168500000D03*
G04 #@! TD*
G04 #@! TO.C,H1*
X103500000Y-103500000D03*
G04 #@! TD*
D15*
G04 #@! TO.C,BZ1*
X205200000Y-156050000D03*
X205200000Y-163550000D03*
D16*
X202700000Y-159800000D03*
X207700000Y-159800000D03*
G04 #@! TD*
D14*
G04 #@! TO.C,H3*
X212500000Y-168500000D03*
G04 #@! TD*
D17*
G04 #@! TO.C,J13*
X138920000Y-115500000D03*
D18*
X138920000Y-112960000D03*
X138920000Y-110420000D03*
X138920000Y-107880000D03*
G04 #@! TD*
D19*
G04 #@! TO.C,SW3*
X191620000Y-119350000D03*
X196620000Y-119350000D03*
X194120000Y-119350000D03*
X191620000Y-104850000D03*
X196620000Y-104850000D03*
D20*
X188520000Y-111850000D03*
X199720000Y-111850000D03*
G04 #@! TD*
D17*
G04 #@! TO.C,J8*
X211500000Y-130300000D03*
D18*
X208960000Y-130300000D03*
X206420000Y-130300000D03*
G04 #@! TD*
D17*
G04 #@! TO.C,J6*
X167375000Y-152790000D03*
D18*
X169915000Y-152790000D03*
X172455000Y-152790000D03*
G04 #@! TD*
D21*
G04 #@! TO.C,C21*
X110800000Y-132300000D03*
D19*
X110800000Y-127300000D03*
G04 #@! TD*
D17*
G04 #@! TO.C,J16*
X212725000Y-148210000D03*
D18*
X210185000Y-148210000D03*
X207645000Y-148210000D03*
G04 #@! TD*
D17*
G04 #@! TO.C,JP2*
X170954364Y-131425000D03*
D18*
X170954364Y-128885000D03*
X170954364Y-126345000D03*
G04 #@! TD*
D21*
G04 #@! TO.C,C15*
X129800000Y-107967677D03*
D19*
X129800000Y-102967677D03*
G04 #@! TD*
D21*
G04 #@! TO.C,C20*
X105800000Y-154632323D03*
D19*
X105800000Y-159632323D03*
G04 #@! TD*
D17*
G04 #@! TO.C,J2*
X177100000Y-169700000D03*
D18*
X177100000Y-167160000D03*
X177100000Y-164620000D03*
X177100000Y-162080000D03*
G04 #@! TD*
D17*
G04 #@! TO.C,JP1*
X188300000Y-131800000D03*
D18*
X188300000Y-129260000D03*
X188300000Y-126720000D03*
G04 #@! TD*
D17*
G04 #@! TO.C,J5*
X103810000Y-113975000D03*
D18*
X103810000Y-116515000D03*
X103810000Y-119055000D03*
G04 #@! TD*
D17*
G04 #@! TO.C,J3*
X160387142Y-126100000D03*
D18*
X162927142Y-126100000D03*
G04 #@! TD*
D17*
G04 #@! TO.C,J11*
X174805000Y-130290000D03*
D18*
X177345000Y-130290000D03*
X179885000Y-130290000D03*
X182425000Y-130290000D03*
G04 #@! TD*
D22*
G04 #@! TO.C,J12*
X157825000Y-167860000D03*
X152825000Y-167860000D03*
D23*
X158825000Y-170560000D03*
X151825000Y-170560000D03*
G04 #@! TD*
D17*
G04 #@! TO.C,J9*
X208275000Y-110790000D03*
D18*
X210815000Y-110790000D03*
X213355000Y-110790000D03*
G04 #@! TD*
D17*
G04 #@! TO.C,J7*
X197100000Y-129300000D03*
D18*
X194560000Y-129300000D03*
X192020000Y-129300000D03*
G04 #@! TD*
D17*
G04 #@! TO.C,J15*
X113700000Y-142975000D03*
D18*
X113700000Y-145515000D03*
X113700000Y-148055000D03*
X113700000Y-150595000D03*
X113700000Y-153135000D03*
X113700000Y-155675000D03*
X113700000Y-158215000D03*
G04 #@! TD*
D17*
G04 #@! TO.C,J4*
X152587142Y-126100000D03*
D18*
X155127142Y-126100000D03*
G04 #@! TD*
D17*
G04 #@! TO.C,JP4*
X203800000Y-150125000D03*
D18*
X203800000Y-147585000D03*
X203800000Y-145045000D03*
G04 #@! TD*
D24*
G04 #@! TO.C,L1*
X124862500Y-127529500D03*
X124862500Y-132533300D03*
X120874700Y-132533300D03*
X120874700Y-127529500D03*
G04 #@! TD*
D25*
G04 #@! TO.C,TH1*
X169100000Y-169800000D03*
X171600000Y-169800000D03*
G04 #@! TD*
D26*
G04 #@! TO.C,J14*
X112290000Y-105700000D03*
X119910000Y-105700000D03*
G04 #@! TD*
D17*
G04 #@! TO.C,JP3*
X202600000Y-132900000D03*
D18*
X202600000Y-130360000D03*
X202600000Y-127820000D03*
G04 #@! TD*
D17*
G04 #@! TO.C,J10*
X181950000Y-162400000D03*
D18*
X184490000Y-162400000D03*
X187030000Y-162400000D03*
X189570000Y-162400000D03*
X192110000Y-162400000D03*
X194650000Y-162400000D03*
G04 #@! TD*
M02*
