%TF.GenerationSoftware,KiCad,Pcbnew,6.0.7-f9a2dced07~116~ubuntu20.04.1*%
%TF.CreationDate,2022-10-13T22:08:01-06:00*%
%TF.ProjectId,kelvin-kontroller,6b656c76-696e-42d6-9b6f-6e74726f6c6c,rev?*%
%TF.SameCoordinates,Original*%
%TF.FileFunction,Drillmap*%
%TF.FilePolarity,Positive*%
%FSLAX45Y45*%
G04 Gerber Fmt 4.5, Leading zero omitted, Abs format (unit mm)*
G04 Created by KiCad (PCBNEW 6.0.7-f9a2dced07~116~ubuntu20.04.1) date 2022-10-13 22:08:01*
%MOMM*%
%LPD*%
G01*
G04 APERTURE LIST*
%ADD10C,0.100000*%
%ADD11C,0.200000*%
%ADD12C,0.040000*%
%ADD13C,0.060000*%
%ADD14C,0.080000*%
%ADD15C,0.090000*%
%ADD16C,0.110000*%
%ADD17C,0.120000*%
%ADD18C,0.129540*%
%ADD19C,0.250000*%
G04 APERTURE END LIST*
D10*
X15000000Y-17200000D02*
X21400000Y-17200000D01*
X11100000Y-16000000D02*
X10800000Y-16300000D01*
X21600000Y-17000000D02*
X21600000Y-10200000D01*
X14900000Y-16000000D02*
X11100000Y-16000000D01*
X10000000Y-10200000D02*
X10000000Y-17000000D01*
X10000000Y-17000000D02*
G75*
G03*
X10200000Y-17200000I200000J0D01*
G01*
X15000000Y-16100000D02*
X14900000Y-16000000D01*
X10800000Y-17200000D02*
X10200000Y-17200000D01*
X15000000Y-17200000D02*
X15000000Y-16100000D01*
X10200000Y-10000000D02*
G75*
G03*
X10000000Y-10200000I0J-200000D01*
G01*
X21400000Y-10000000D02*
X10200000Y-10000000D01*
X21400000Y-17200000D02*
G75*
G03*
X21600000Y-17000000I0J200000D01*
G01*
X21600000Y-10200000D02*
G75*
G03*
X21400000Y-10000000I-200000J0D01*
G01*
X10800000Y-16300000D02*
X10800000Y-17200000D01*
D11*
D12*
X10080000Y-12140000D02*
X10120000Y-12180000D01*
X10120000Y-12140000D02*
X10080000Y-12180000D01*
X10090000Y-12870000D02*
X10130000Y-12910000D01*
X10130000Y-12870000D02*
X10090000Y-12910000D01*
X10090000Y-13650000D02*
X10130000Y-13690000D01*
X10130000Y-13650000D02*
X10090000Y-13690000D01*
X10880000Y-10120000D02*
X10920000Y-10160000D01*
X10920000Y-10120000D02*
X10880000Y-10160000D01*
X10900000Y-14110000D02*
X10940000Y-14150000D01*
X10940000Y-14110000D02*
X10900000Y-14150000D01*
X11230000Y-13780000D02*
X11270000Y-13820000D01*
X11270000Y-13780000D02*
X11230000Y-13820000D01*
X11690000Y-14940000D02*
X11730000Y-14980000D01*
X11730000Y-14940000D02*
X11690000Y-14980000D01*
X11690000Y-15200000D02*
X11730000Y-15240000D01*
X11730000Y-15200000D02*
X11690000Y-15240000D01*
X11690000Y-15460000D02*
X11730000Y-15500000D01*
X11730000Y-15460000D02*
X11690000Y-15500000D01*
X11740000Y-14860000D02*
X11780000Y-14900000D01*
X11780000Y-14860000D02*
X11740000Y-14900000D01*
X11920000Y-14390000D02*
X11960000Y-14430000D01*
X11960000Y-14390000D02*
X11920000Y-14430000D01*
X11930000Y-13890000D02*
X11970000Y-13930000D01*
X11970000Y-13890000D02*
X11930000Y-13930000D01*
X12000000Y-13990000D02*
X12040000Y-14030000D01*
X12040000Y-13990000D02*
X12000000Y-14030000D01*
X12030000Y-15000000D02*
X12070000Y-15040000D01*
X12070000Y-15000000D02*
X12030000Y-15040000D01*
X12090000Y-15450000D02*
X12130000Y-15490000D01*
X12130000Y-15450000D02*
X12090000Y-15490000D01*
X12150000Y-15190000D02*
X12190000Y-15230000D01*
X12190000Y-15190000D02*
X12150000Y-15230000D01*
X12170000Y-11680000D02*
X12210000Y-11720000D01*
X12210000Y-11680000D02*
X12170000Y-11720000D01*
X12180000Y-10760000D02*
X12220000Y-10800000D01*
X12220000Y-10760000D02*
X12180000Y-10800000D01*
X12480000Y-15020000D02*
X12520000Y-15060000D01*
X12520000Y-15020000D02*
X12480000Y-15060000D01*
X12510000Y-15370000D02*
X12550000Y-15410000D01*
X12550000Y-15370000D02*
X12510000Y-15410000D01*
X12610000Y-14300000D02*
X12650000Y-14340000D01*
X12650000Y-14300000D02*
X12610000Y-14340000D01*
X12710000Y-12020000D02*
X12750000Y-12060000D01*
X12750000Y-12020000D02*
X12710000Y-12060000D01*
X12710000Y-14380000D02*
X12750000Y-14420000D01*
X12750000Y-14380000D02*
X12710000Y-14420000D01*
X12770000Y-12110000D02*
X12810000Y-12150000D01*
X12810000Y-12110000D02*
X12770000Y-12150000D01*
X12840000Y-11880000D02*
X12880000Y-11920000D01*
X12880000Y-11880000D02*
X12840000Y-11920000D01*
X12870000Y-11010000D02*
X12910000Y-11050000D01*
X12910000Y-11010000D02*
X12870000Y-11050000D01*
X12880000Y-13050000D02*
X12920000Y-13090000D01*
X12920000Y-13050000D02*
X12880000Y-13090000D01*
X12880000Y-15040000D02*
X12920000Y-15080000D01*
X12920000Y-15040000D02*
X12880000Y-15080000D01*
X12890000Y-12220000D02*
X12930000Y-12260000D01*
X12930000Y-12220000D02*
X12890000Y-12260000D01*
X12890000Y-15330000D02*
X12930000Y-15370000D01*
X12930000Y-15330000D02*
X12890000Y-15370000D01*
X13070000Y-15160000D02*
X13110000Y-15200000D01*
X13110000Y-15160000D02*
X13070000Y-15200000D01*
X13140000Y-10710000D02*
X13180000Y-10750000D01*
X13180000Y-10710000D02*
X13140000Y-10750000D01*
X13140000Y-13980000D02*
X13180000Y-14020000D01*
X13180000Y-13980000D02*
X13140000Y-14020000D01*
X13240000Y-15870000D02*
X13280000Y-15910000D01*
X13280000Y-15870000D02*
X13240000Y-15910000D01*
X13250000Y-15330000D02*
X13290000Y-15370000D01*
X13290000Y-15330000D02*
X13250000Y-15370000D01*
X13260000Y-15040000D02*
X13300000Y-15080000D01*
X13300000Y-15040000D02*
X13260000Y-15080000D01*
X13350000Y-13390000D02*
X13390000Y-13430000D01*
X13390000Y-13390000D02*
X13350000Y-13430000D01*
X13360000Y-12250000D02*
X13400000Y-12290000D01*
X13400000Y-12250000D02*
X13360000Y-12290000D01*
X13370000Y-11890000D02*
X13410000Y-11930000D01*
X13410000Y-11890000D02*
X13370000Y-11930000D01*
X13390000Y-11130000D02*
X13430000Y-11170000D01*
X13430000Y-11130000D02*
X13390000Y-11170000D01*
X13590000Y-10920000D02*
X13630000Y-10960000D01*
X13630000Y-10920000D02*
X13590000Y-10960000D01*
X13630000Y-13330000D02*
X13670000Y-13370000D01*
X13670000Y-13330000D02*
X13630000Y-13370000D01*
X13630000Y-15040000D02*
X13670000Y-15080000D01*
X13670000Y-15040000D02*
X13630000Y-15080000D01*
X13827450Y-14830000D02*
X13867450Y-14870000D01*
X13867450Y-14830000D02*
X13827450Y-14870000D01*
X13860000Y-13120000D02*
X13900000Y-13160000D01*
X13900000Y-13120000D02*
X13860000Y-13160000D01*
X13860000Y-14940000D02*
X13900000Y-14980000D01*
X13900000Y-14940000D02*
X13860000Y-14980000D01*
X13890000Y-12240000D02*
X13930000Y-12280000D01*
X13930000Y-12240000D02*
X13890000Y-12280000D01*
X14030000Y-14120000D02*
X14070000Y-14160000D01*
X14070000Y-14120000D02*
X14030000Y-14160000D01*
X14079148Y-13470395D02*
X14119148Y-13510395D01*
X14119148Y-13470395D02*
X14079148Y-13510395D01*
X14170000Y-14480000D02*
X14210000Y-14520000D01*
X14210000Y-14480000D02*
X14170000Y-14520000D01*
X14170000Y-14730000D02*
X14210000Y-14770000D01*
X14210000Y-14730000D02*
X14170000Y-14770000D01*
X14170000Y-15000000D02*
X14210000Y-15040000D01*
X14210000Y-15000000D02*
X14170000Y-15040000D01*
X14180000Y-14620000D02*
X14220000Y-14660000D01*
X14220000Y-14620000D02*
X14180000Y-14660000D01*
X14180000Y-15380000D02*
X14220000Y-15420000D01*
X14220000Y-15380000D02*
X14180000Y-15420000D01*
X14180000Y-15510000D02*
X14220000Y-15550000D01*
X14220000Y-15510000D02*
X14180000Y-15550000D01*
X14190000Y-13340000D02*
X14230000Y-13380000D01*
X14230000Y-13340000D02*
X14190000Y-13380000D01*
X14262400Y-13549743D02*
X14302400Y-13589743D01*
X14302400Y-13549743D02*
X14262400Y-13589743D01*
X14307284Y-13483580D02*
X14347284Y-13523580D01*
X14347284Y-13483580D02*
X14307284Y-13523580D01*
X14390000Y-15810000D02*
X14430000Y-15850000D01*
X14430000Y-15810000D02*
X14390000Y-15850000D01*
X14460000Y-15170000D02*
X14500000Y-15210000D01*
X14500000Y-15170000D02*
X14460000Y-15210000D01*
X14470000Y-14860000D02*
X14510000Y-14900000D01*
X14510000Y-14860000D02*
X14470000Y-14900000D01*
X14490000Y-13300000D02*
X14530000Y-13340000D01*
X14530000Y-13300000D02*
X14490000Y-13340000D01*
X14500000Y-14110000D02*
X14540000Y-14150000D01*
X14540000Y-14110000D02*
X14500000Y-14150000D01*
X14600000Y-13460000D02*
X14640000Y-13500000D01*
X14640000Y-13460000D02*
X14600000Y-13500000D01*
X14620000Y-15600000D02*
X14660000Y-15640000D01*
X14660000Y-15600000D02*
X14620000Y-15640000D01*
X14630000Y-15300000D02*
X14670000Y-15340000D01*
X14670000Y-15300000D02*
X14630000Y-15340000D01*
X14720000Y-14750000D02*
X14760000Y-14790000D01*
X14760000Y-14750000D02*
X14720000Y-14790000D01*
X14770000Y-10130000D02*
X14810000Y-10170000D01*
X14810000Y-10130000D02*
X14770000Y-10170000D01*
X14770000Y-15010000D02*
X14810000Y-15050000D01*
X14810000Y-15010000D02*
X14770000Y-15050000D01*
X14860000Y-14380000D02*
X14900000Y-14420000D01*
X14900000Y-14380000D02*
X14860000Y-14420000D01*
X14910000Y-14800000D02*
X14950000Y-14840000D01*
X14950000Y-14800000D02*
X14910000Y-14840000D01*
X15000000Y-13480000D02*
X15040000Y-13520000D01*
X15040000Y-13480000D02*
X15000000Y-13520000D01*
X15020000Y-14200000D02*
X15060000Y-14240000D01*
X15060000Y-14200000D02*
X15020000Y-14240000D01*
X15110000Y-15600000D02*
X15150000Y-15640000D01*
X15150000Y-15600000D02*
X15110000Y-15640000D01*
X15160000Y-16540000D02*
X15200000Y-16580000D01*
X15200000Y-16540000D02*
X15160000Y-16580000D01*
X15300000Y-15400000D02*
X15340000Y-15440000D01*
X15340000Y-15400000D02*
X15300000Y-15440000D01*
X15320000Y-13400000D02*
X15360000Y-13440000D01*
X15360000Y-13400000D02*
X15320000Y-13440000D01*
X15350000Y-15060000D02*
X15390000Y-15100000D01*
X15390000Y-15060000D02*
X15350000Y-15100000D01*
X15420000Y-14200000D02*
X15460000Y-14240000D01*
X15460000Y-14200000D02*
X15420000Y-14240000D01*
X15420050Y-14280000D02*
X15460050Y-14320000D01*
X15460050Y-14280000D02*
X15420050Y-14320000D01*
X15480000Y-16321000D02*
X15520000Y-16361000D01*
X15520000Y-16321000D02*
X15480000Y-16361000D01*
X15490000Y-16401000D02*
X15530000Y-16441000D01*
X15530000Y-16401000D02*
X15490000Y-16441000D01*
X15520000Y-14780000D02*
X15560000Y-14820000D01*
X15560000Y-14780000D02*
X15520000Y-14820000D01*
X15550000Y-11350000D02*
X15590000Y-11390000D01*
X15590000Y-11350000D02*
X15550000Y-11390000D01*
X15560000Y-16321000D02*
X15600000Y-16361000D01*
X15600000Y-16321000D02*
X15560000Y-16361000D01*
X15570000Y-13470000D02*
X15610000Y-13510000D01*
X15610000Y-13470000D02*
X15570000Y-13510000D01*
X15650000Y-16341000D02*
X15690000Y-16381000D01*
X15690000Y-16341000D02*
X15650000Y-16381000D01*
X15680000Y-16020000D02*
X15720000Y-16060000D01*
X15720000Y-16020000D02*
X15680000Y-16060000D01*
X15710000Y-15250000D02*
X15750000Y-15290000D01*
X15750000Y-15250000D02*
X15710000Y-15290000D01*
X15750000Y-13890000D02*
X15790000Y-13930000D01*
X15790000Y-13890000D02*
X15750000Y-13930000D01*
X16075050Y-15262130D02*
X16115050Y-15302130D01*
X16115050Y-15262130D02*
X16075050Y-15302130D01*
X16090000Y-13400000D02*
X16130000Y-13440000D01*
X16130000Y-13400000D02*
X16090000Y-13440000D01*
X16090000Y-13890000D02*
X16130000Y-13930000D01*
X16130000Y-13890000D02*
X16090000Y-13930000D01*
X16100000Y-15850000D02*
X16140000Y-15890000D01*
X16140000Y-15850000D02*
X16100000Y-15890000D01*
X16150000Y-10130000D02*
X16190000Y-10170000D01*
X16190000Y-10130000D02*
X16150000Y-10170000D01*
X16260000Y-15640000D02*
X16300000Y-15680000D01*
X16300000Y-15640000D02*
X16260000Y-15680000D01*
X16330000Y-13470000D02*
X16370000Y-13510000D01*
X16370000Y-13470000D02*
X16330000Y-13510000D01*
X16370000Y-15760000D02*
X16410000Y-15800000D01*
X16410000Y-15760000D02*
X16370000Y-15800000D01*
X16550000Y-13890000D02*
X16590000Y-13930000D01*
X16590000Y-13890000D02*
X16550000Y-13930000D01*
X16550000Y-16990000D02*
X16590000Y-17030000D01*
X16590000Y-16990000D02*
X16550000Y-17030000D01*
X16570000Y-14780000D02*
X16610000Y-14820000D01*
X16610000Y-14780000D02*
X16570000Y-14820000D01*
X16710000Y-12720000D02*
X16750000Y-12760000D01*
X16750000Y-12720000D02*
X16710000Y-12760000D01*
X16860000Y-14240000D02*
X16900000Y-14280000D01*
X16900000Y-14240000D02*
X16860000Y-14280000D01*
X17080000Y-15900000D02*
X17120000Y-15940000D01*
X17120000Y-15900000D02*
X17080000Y-15940000D01*
X17210000Y-13890000D02*
X17250000Y-13930000D01*
X17250000Y-13890000D02*
X17210000Y-13930000D01*
X17240000Y-15820000D02*
X17280000Y-15860000D01*
X17280000Y-15820000D02*
X17240000Y-15860000D01*
X17420000Y-15697450D02*
X17460000Y-15737450D01*
X17460000Y-15697450D02*
X17420000Y-15737450D01*
X17420000Y-16060000D02*
X17460000Y-16100000D01*
X17460000Y-16060000D02*
X17420000Y-16100000D01*
X17570000Y-14110000D02*
X17610000Y-14150000D01*
X17610000Y-14110000D02*
X17570000Y-14150000D01*
X17572500Y-16037500D02*
X17612500Y-16077500D01*
X17612500Y-16037500D02*
X17572500Y-16077500D01*
X17650000Y-14380000D02*
X17690000Y-14420000D01*
X17690000Y-14380000D02*
X17650000Y-14420000D01*
X17670000Y-15960000D02*
X17710000Y-16000000D01*
X17710000Y-15960000D02*
X17670000Y-16000000D01*
X17710000Y-14040000D02*
X17750000Y-14080000D01*
X17750000Y-14040000D02*
X17710000Y-14080000D01*
X17720000Y-15200000D02*
X17760000Y-15240000D01*
X17760000Y-15200000D02*
X17720000Y-15240000D01*
X17820000Y-11350000D02*
X17860000Y-11390000D01*
X17860000Y-11350000D02*
X17820000Y-11390000D01*
X17840000Y-14700000D02*
X17880000Y-14740000D01*
X17880000Y-14700000D02*
X17840000Y-14740000D01*
X17840000Y-16190000D02*
X17880000Y-16230000D01*
X17880000Y-16190000D02*
X17840000Y-16230000D01*
X17840000Y-16892550D02*
X17880000Y-16932550D01*
X17880000Y-16892550D02*
X17840000Y-16932550D01*
X17850000Y-14110000D02*
X17890000Y-14150000D01*
X17890000Y-14110000D02*
X17850000Y-14150000D01*
X17875100Y-14780000D02*
X17915100Y-14820000D01*
X17915100Y-14780000D02*
X17875100Y-14820000D01*
X17890000Y-13890000D02*
X17930000Y-13930000D01*
X17930000Y-13890000D02*
X17890000Y-13930000D01*
X17910000Y-16440000D02*
X17950000Y-16480000D01*
X17950000Y-16440000D02*
X17910000Y-16480000D01*
X17940000Y-14480000D02*
X17980000Y-14520000D01*
X17980000Y-14480000D02*
X17940000Y-14520000D01*
X17990000Y-13590000D02*
X18030000Y-13630000D01*
X18030000Y-13590000D02*
X17990000Y-13630000D01*
X17990000Y-14610000D02*
X18030000Y-14650000D01*
X18030000Y-14610000D02*
X17990000Y-14650000D01*
X18080000Y-14760000D02*
X18120000Y-14800000D01*
X18120000Y-14760000D02*
X18080000Y-14800000D01*
X18100000Y-13220000D02*
X18140000Y-13260000D01*
X18140000Y-13220000D02*
X18100000Y-13260000D01*
X18110000Y-14380000D02*
X18150000Y-14420000D01*
X18150000Y-14380000D02*
X18110000Y-14420000D01*
X18160000Y-16910000D02*
X18200000Y-16950000D01*
X18200000Y-16910000D02*
X18160000Y-16950000D01*
X18170000Y-15970000D02*
X18210000Y-16010000D01*
X18210000Y-15970000D02*
X18170000Y-16010000D01*
X18190000Y-14700000D02*
X18230000Y-14740000D01*
X18230000Y-14700000D02*
X18190000Y-14740000D01*
X18360000Y-15190000D02*
X18400000Y-15230000D01*
X18400000Y-15190000D02*
X18360000Y-15230000D01*
X18370000Y-13590000D02*
X18410000Y-13630000D01*
X18410000Y-13590000D02*
X18370000Y-13630000D01*
X18397550Y-14450000D02*
X18437550Y-14490000D01*
X18437550Y-14450000D02*
X18397550Y-14490000D01*
X18428581Y-15048817D02*
X18468581Y-15088817D01*
X18468581Y-15048817D02*
X18428581Y-15088817D01*
X18443254Y-15817450D02*
X18483254Y-15857450D01*
X18483254Y-15817450D02*
X18443254Y-15857450D01*
X18470000Y-15900000D02*
X18510000Y-15940000D01*
X18510000Y-15900000D02*
X18470000Y-15940000D01*
X18500000Y-15110000D02*
X18540000Y-15150000D01*
X18540000Y-15110000D02*
X18500000Y-15150000D01*
X18512450Y-14120000D02*
X18552450Y-14160000D01*
X18552450Y-14120000D02*
X18512450Y-14160000D01*
X18516996Y-15188123D02*
X18556996Y-15228123D01*
X18556996Y-15188123D02*
X18516996Y-15228123D01*
X18580000Y-16870000D02*
X18620000Y-16910000D01*
X18620000Y-16870000D02*
X18580000Y-16910000D01*
X18600000Y-15620000D02*
X18640000Y-15660000D01*
X18640000Y-15620000D02*
X18600000Y-15660000D01*
X18660000Y-15690000D02*
X18700000Y-15730000D01*
X18700000Y-15690000D02*
X18660000Y-15730000D01*
X18690000Y-14270000D02*
X18730000Y-14310000D01*
X18730000Y-14270000D02*
X18690000Y-14310000D01*
X18700000Y-15350000D02*
X18740000Y-15390000D01*
X18740000Y-15350000D02*
X18700000Y-15390000D01*
X18747550Y-14509719D02*
X18787550Y-14549719D01*
X18787550Y-14509719D02*
X18747550Y-14549719D01*
X18750000Y-15760000D02*
X18790000Y-15800000D01*
X18790000Y-15760000D02*
X18750000Y-15800000D01*
X18790532Y-14395496D02*
X18830532Y-14435496D01*
X18830532Y-14395496D02*
X18790532Y-14435496D01*
X18810000Y-16440000D02*
X18850000Y-16480000D01*
X18850000Y-16440000D02*
X18810000Y-16480000D01*
X18820000Y-11540000D02*
X18860000Y-11580000D01*
X18860000Y-11540000D02*
X18820000Y-11580000D01*
X18861336Y-14342550D02*
X18901336Y-14382550D01*
X18901336Y-14342550D02*
X18861336Y-14382550D01*
X18870000Y-12100000D02*
X18910000Y-12140000D01*
X18910000Y-12100000D02*
X18870000Y-12140000D01*
X18950000Y-13890000D02*
X18990000Y-13930000D01*
X18990000Y-13890000D02*
X18950000Y-13930000D01*
X19040000Y-14620000D02*
X19080000Y-14660000D01*
X19080000Y-14620000D02*
X19040000Y-14660000D01*
X19050000Y-10750000D02*
X19090000Y-10790000D01*
X19090000Y-10750000D02*
X19050000Y-10790000D01*
X19060000Y-12430000D02*
X19100000Y-12470000D01*
X19100000Y-12430000D02*
X19060000Y-12470000D01*
X19140000Y-11540000D02*
X19180000Y-11580000D01*
X19180000Y-11540000D02*
X19140000Y-11580000D01*
X19140000Y-13770000D02*
X19180000Y-13810000D01*
X19180000Y-13770000D02*
X19140000Y-13810000D01*
X19220000Y-14620000D02*
X19260000Y-14660000D01*
X19260000Y-14620000D02*
X19220000Y-14660000D01*
X19350000Y-15630000D02*
X19390000Y-15670000D01*
X19390000Y-15630000D02*
X19350000Y-15670000D01*
X19370000Y-14020000D02*
X19410000Y-14060000D01*
X19410000Y-14020000D02*
X19370000Y-14060000D01*
X19460000Y-14620000D02*
X19500000Y-14660000D01*
X19500000Y-14620000D02*
X19460000Y-14660000D01*
X19520000Y-14520000D02*
X19560000Y-14560000D01*
X19560000Y-14520000D02*
X19520000Y-14560000D01*
X19520000Y-15950000D02*
X19560000Y-15990000D01*
X19560000Y-15950000D02*
X19520000Y-15990000D01*
X19530000Y-16880000D02*
X19570000Y-16920000D01*
X19570000Y-16880000D02*
X19530000Y-16920000D01*
X19571439Y-14342550D02*
X19611439Y-14382550D01*
X19611439Y-14342550D02*
X19571439Y-14382550D01*
X19580000Y-16090000D02*
X19620000Y-16130000D01*
X19620000Y-16090000D02*
X19580000Y-16130000D01*
X19640000Y-11540000D02*
X19680000Y-11580000D01*
X19680000Y-11540000D02*
X19640000Y-11580000D01*
X19670000Y-14400000D02*
X19710000Y-14440000D01*
X19710000Y-14400000D02*
X19670000Y-14440000D01*
X19670000Y-16010000D02*
X19710000Y-16050000D01*
X19710000Y-16010000D02*
X19670000Y-16050000D01*
X19770000Y-14450000D02*
X19810000Y-14490000D01*
X19810000Y-14450000D02*
X19770000Y-14490000D01*
X19810000Y-15290000D02*
X19850000Y-15330000D01*
X19850000Y-15290000D02*
X19810000Y-15330000D01*
X19862190Y-15040050D02*
X19902190Y-15080050D01*
X19902190Y-15040050D02*
X19862190Y-15080050D01*
X19940000Y-14820000D02*
X19980000Y-14860000D01*
X19980000Y-14820000D02*
X19940000Y-14860000D01*
X19990000Y-12090000D02*
X20030000Y-12130000D01*
X20030000Y-12090000D02*
X19990000Y-12130000D01*
X20020000Y-15290000D02*
X20060000Y-15330000D01*
X20060000Y-15290000D02*
X20020000Y-15330000D01*
X20065050Y-12184950D02*
X20105050Y-12224950D01*
X20105050Y-12184950D02*
X20065050Y-12224950D01*
X20065050Y-13750000D02*
X20105050Y-13790000D01*
X20105050Y-13750000D02*
X20065050Y-13790000D01*
X20120000Y-15100000D02*
X20160000Y-15140000D01*
X20160000Y-15100000D02*
X20120000Y-15140000D01*
X20250000Y-16470000D02*
X20290000Y-16510000D01*
X20290000Y-16470000D02*
X20250000Y-16510000D01*
X20450000Y-13900000D02*
X20490000Y-13940000D01*
X20490000Y-13900000D02*
X20450000Y-13940000D01*
X20600000Y-14310000D02*
X20640000Y-14350000D01*
X20640000Y-14310000D02*
X20600000Y-14350000D01*
X20670000Y-10170000D02*
X20710000Y-10210000D01*
X20710000Y-10170000D02*
X20670000Y-10210000D01*
X20720000Y-14120000D02*
X20760000Y-14160000D01*
X20760000Y-14120000D02*
X20720000Y-14160000D01*
X20770000Y-17060000D02*
X20810000Y-17100000D01*
X20810000Y-17060000D02*
X20770000Y-17100000D01*
X21380000Y-16300000D02*
X21420000Y-16340000D01*
X21420000Y-16300000D02*
X21380000Y-16340000D01*
X21400000Y-13940000D02*
X21440000Y-13980000D01*
X21440000Y-13940000D02*
X21400000Y-13980000D01*
X21460000Y-10820000D02*
X21500000Y-10860000D01*
X21500000Y-10820000D02*
X21460000Y-10860000D01*
X21470000Y-12850000D02*
X21510000Y-12890000D01*
X21510000Y-12850000D02*
X21470000Y-12890000D01*
D13*
X10430000Y-10900000D02*
G75*
G03*
X10430000Y-10900000I-30000J0D01*
G01*
X10450000Y-14700000D02*
G75*
G03*
X10450000Y-14700000I-30000J0D01*
G01*
X10690000Y-14560000D02*
G75*
G03*
X10690000Y-14560000I-30000J0D01*
G01*
X10730000Y-11100000D02*
G75*
G03*
X10730000Y-11100000I-30000J0D01*
G01*
X11130000Y-12900000D02*
G75*
G03*
X11130000Y-12900000I-30000J0D01*
G01*
X11310000Y-12250000D02*
G75*
G03*
X11310000Y-12250000I-30000J0D01*
G01*
X11366670Y-13253330D02*
G75*
G03*
X11366670Y-13253330I-30000J0D01*
G01*
X11370000Y-12390000D02*
G75*
G03*
X11370000Y-12390000I-30000J0D01*
G01*
X11590000Y-12890000D02*
G75*
G03*
X11590000Y-12890000I-30000J0D01*
G01*
X11880000Y-12400000D02*
G75*
G03*
X11880000Y-12400000I-30000J0D01*
G01*
X11970000Y-14550000D02*
G75*
G03*
X11970000Y-14550000I-30000J0D01*
G01*
X12010000Y-12250000D02*
G75*
G03*
X12010000Y-12250000I-30000J0D01*
G01*
X13770000Y-13910000D02*
G75*
G03*
X13770000Y-13910000I-30000J0D01*
G01*
X16936768Y-10296768D02*
G75*
G03*
X16936768Y-10296768I-30000J0D01*
G01*
X17110000Y-10570000D02*
G75*
G03*
X17110000Y-10570000I-30000J0D01*
G01*
X18526768Y-10296768D02*
G75*
G03*
X18526768Y-10296768I-30000J0D01*
G01*
X18600000Y-13800000D02*
G75*
G03*
X18600000Y-13800000I-30000J0D01*
G01*
X18646718Y-10570000D02*
G75*
G03*
X18646718Y-10570000I-30000J0D01*
G01*
X19180000Y-13910000D02*
G75*
G03*
X19180000Y-13910000I-30000J0D01*
G01*
X19982000Y-12672000D02*
G75*
G03*
X19982000Y-12672000I-30000J0D01*
G01*
X20000000Y-14500000D02*
G75*
G03*
X20000000Y-14500000I-30000J0D01*
G01*
X20690000Y-13770000D02*
G75*
G03*
X20690000Y-13770000I-30000J0D01*
G01*
X20880000Y-15180000D02*
G75*
G03*
X20880000Y-15180000I-30000J0D01*
G01*
X21060000Y-15100000D02*
G75*
G03*
X21060000Y-15100000I-30000J0D01*
G01*
X21370000Y-11340000D02*
G75*
G03*
X21370000Y-11340000I-30000J0D01*
G01*
D14*
X16910000Y-16940000D02*
X16910000Y-17020000D01*
X16870000Y-16980000D02*
X16950000Y-16980000D01*
X17160000Y-16940000D02*
X17160000Y-17020000D01*
X17120000Y-16980000D02*
X17200000Y-16980000D01*
D15*
X15314320Y-16817820D02*
X15314320Y-16754180D01*
X15250680Y-16754180D01*
X15250680Y-16817820D01*
X15314320Y-16817820D01*
X15814320Y-16817820D02*
X15814320Y-16754180D01*
X15750680Y-16754180D01*
X15750680Y-16817820D01*
X15814320Y-16817820D01*
D10*
X10381000Y-11447500D02*
X10431000Y-11397500D01*
X10381000Y-11347500D01*
X10331000Y-11397500D01*
X10381000Y-11447500D01*
X10381000Y-11701500D02*
X10431000Y-11651500D01*
X10381000Y-11601500D01*
X10331000Y-11651500D01*
X10381000Y-11701500D01*
X10381000Y-11955500D02*
X10431000Y-11905500D01*
X10381000Y-11855500D01*
X10331000Y-11905500D01*
X10381000Y-11955500D01*
X10580000Y-15513232D02*
X10630000Y-15463232D01*
X10580000Y-15413232D01*
X10530000Y-15463232D01*
X10580000Y-15513232D01*
X10580000Y-16013232D02*
X10630000Y-15963232D01*
X10580000Y-15913232D01*
X10530000Y-15963232D01*
X10580000Y-16013232D01*
X11080000Y-12780000D02*
X11130000Y-12730000D01*
X11080000Y-12680000D01*
X11030000Y-12730000D01*
X11080000Y-12780000D01*
X11080000Y-13280000D02*
X11130000Y-13230000D01*
X11080000Y-13180000D01*
X11030000Y-13230000D01*
X11080000Y-13280000D01*
X11370000Y-14347500D02*
X11420000Y-14297500D01*
X11370000Y-14247500D01*
X11320000Y-14297500D01*
X11370000Y-14347500D01*
X11370000Y-14601500D02*
X11420000Y-14551500D01*
X11370000Y-14501500D01*
X11320000Y-14551500D01*
X11370000Y-14601500D01*
X11370000Y-14855500D02*
X11420000Y-14805500D01*
X11370000Y-14755500D01*
X11320000Y-14805500D01*
X11370000Y-14855500D01*
X11370000Y-15109500D02*
X11420000Y-15059500D01*
X11370000Y-15009500D01*
X11320000Y-15059500D01*
X11370000Y-15109500D01*
X11370000Y-15363500D02*
X11420000Y-15313500D01*
X11370000Y-15263500D01*
X11320000Y-15313500D01*
X11370000Y-15363500D01*
X11370000Y-15617500D02*
X11420000Y-15567500D01*
X11370000Y-15517500D01*
X11320000Y-15567500D01*
X11370000Y-15617500D01*
X11370000Y-15871500D02*
X11420000Y-15821500D01*
X11370000Y-15771500D01*
X11320000Y-15821500D01*
X11370000Y-15871500D01*
X12980000Y-10346768D02*
X13030000Y-10296768D01*
X12980000Y-10246768D01*
X12930000Y-10296768D01*
X12980000Y-10346768D01*
X12980000Y-10846768D02*
X13030000Y-10796768D01*
X12980000Y-10746768D01*
X12930000Y-10796768D01*
X12980000Y-10846768D01*
X13892000Y-10838000D02*
X13942000Y-10788000D01*
X13892000Y-10738000D01*
X13842000Y-10788000D01*
X13892000Y-10838000D01*
X13892000Y-11092000D02*
X13942000Y-11042000D01*
X13892000Y-10992000D01*
X13842000Y-11042000D01*
X13892000Y-11092000D01*
X13892000Y-11346000D02*
X13942000Y-11296000D01*
X13892000Y-11246000D01*
X13842000Y-11296000D01*
X13892000Y-11346000D01*
X13892000Y-11600000D02*
X13942000Y-11550000D01*
X13892000Y-11500000D01*
X13842000Y-11550000D01*
X13892000Y-11600000D01*
X15258714Y-12660000D02*
X15308714Y-12610000D01*
X15258714Y-12560000D01*
X15208714Y-12610000D01*
X15258714Y-12660000D01*
X15512714Y-12660000D02*
X15562714Y-12610000D01*
X15512714Y-12560000D01*
X15462714Y-12610000D01*
X15512714Y-12660000D01*
X16038714Y-12660000D02*
X16088714Y-12610000D01*
X16038714Y-12560000D01*
X15988714Y-12610000D01*
X16038714Y-12660000D01*
X16292714Y-12660000D02*
X16342714Y-12610000D01*
X16292714Y-12560000D01*
X16242714Y-12610000D01*
X16292714Y-12660000D01*
X16737500Y-15329000D02*
X16787500Y-15279000D01*
X16737500Y-15229000D01*
X16687500Y-15279000D01*
X16737500Y-15329000D01*
X16991500Y-15329000D02*
X17041500Y-15279000D01*
X16991500Y-15229000D01*
X16941500Y-15279000D01*
X16991500Y-15329000D01*
X17095436Y-12684500D02*
X17145436Y-12634500D01*
X17095436Y-12584500D01*
X17045436Y-12634500D01*
X17095436Y-12684500D01*
X17095436Y-12938500D02*
X17145436Y-12888500D01*
X17095436Y-12838500D01*
X17045436Y-12888500D01*
X17095436Y-12938500D01*
X17095436Y-13192500D02*
X17145436Y-13142500D01*
X17095436Y-13092500D01*
X17045436Y-13142500D01*
X17095436Y-13192500D01*
X17245500Y-15329000D02*
X17295500Y-15279000D01*
X17245500Y-15229000D01*
X17195500Y-15279000D01*
X17245500Y-15329000D01*
X17480500Y-13079000D02*
X17530500Y-13029000D01*
X17480500Y-12979000D01*
X17430500Y-13029000D01*
X17480500Y-13079000D01*
X17710000Y-16258000D02*
X17760000Y-16208000D01*
X17710000Y-16158000D01*
X17660000Y-16208000D01*
X17710000Y-16258000D01*
X17710000Y-16512000D02*
X17760000Y-16462000D01*
X17710000Y-16412000D01*
X17660000Y-16462000D01*
X17710000Y-16512000D01*
X17710000Y-16766000D02*
X17760000Y-16716000D01*
X17710000Y-16666000D01*
X17660000Y-16716000D01*
X17710000Y-16766000D01*
X17710000Y-17020000D02*
X17760000Y-16970000D01*
X17710000Y-16920000D01*
X17660000Y-16970000D01*
X17710000Y-17020000D01*
X17734500Y-13079000D02*
X17784500Y-13029000D01*
X17734500Y-12979000D01*
X17684500Y-13029000D01*
X17734500Y-13079000D01*
X17988500Y-13079000D02*
X18038500Y-13029000D01*
X17988500Y-12979000D01*
X17938500Y-13029000D01*
X17988500Y-13079000D01*
X18195000Y-16290000D02*
X18245000Y-16240000D01*
X18195000Y-16190000D01*
X18145000Y-16240000D01*
X18195000Y-16290000D01*
X18242500Y-13079000D02*
X18292500Y-13029000D01*
X18242500Y-12979000D01*
X18192500Y-13029000D01*
X18242500Y-13079000D01*
X18449000Y-16290000D02*
X18499000Y-16240000D01*
X18449000Y-16190000D01*
X18399000Y-16240000D01*
X18449000Y-16290000D01*
X18703000Y-16290000D02*
X18753000Y-16240000D01*
X18703000Y-16190000D01*
X18653000Y-16240000D01*
X18703000Y-16290000D01*
X18830000Y-12722000D02*
X18880000Y-12672000D01*
X18830000Y-12622000D01*
X18780000Y-12672000D01*
X18830000Y-12722000D01*
X18830000Y-12976000D02*
X18880000Y-12926000D01*
X18830000Y-12876000D01*
X18780000Y-12926000D01*
X18830000Y-12976000D01*
X18830000Y-13230000D02*
X18880000Y-13180000D01*
X18830000Y-13130000D01*
X18780000Y-13180000D01*
X18830000Y-13230000D01*
X18957000Y-16290000D02*
X19007000Y-16240000D01*
X18957000Y-16190000D01*
X18907000Y-16240000D01*
X18957000Y-16290000D01*
X19202000Y-12980000D02*
X19252000Y-12930000D01*
X19202000Y-12880000D01*
X19152000Y-12930000D01*
X19202000Y-12980000D01*
X19211000Y-16290000D02*
X19261000Y-16240000D01*
X19211000Y-16190000D01*
X19161000Y-16240000D01*
X19211000Y-16290000D01*
X19456000Y-12980000D02*
X19506000Y-12930000D01*
X19456000Y-12880000D01*
X19406000Y-12930000D01*
X19456000Y-12980000D01*
X19465000Y-16290000D02*
X19515000Y-16240000D01*
X19465000Y-16190000D01*
X19415000Y-16240000D01*
X19465000Y-16290000D01*
X19710000Y-12980000D02*
X19760000Y-12930000D01*
X19710000Y-12880000D01*
X19660000Y-12930000D01*
X19710000Y-12980000D01*
X20260000Y-12832000D02*
X20310000Y-12782000D01*
X20260000Y-12732000D01*
X20210000Y-12782000D01*
X20260000Y-12832000D01*
X20260000Y-13086000D02*
X20310000Y-13036000D01*
X20260000Y-12986000D01*
X20210000Y-13036000D01*
X20260000Y-13086000D01*
X20260000Y-13340000D02*
X20310000Y-13290000D01*
X20260000Y-13240000D01*
X20210000Y-13290000D01*
X20260000Y-13340000D01*
X20380000Y-14554500D02*
X20430000Y-14504500D01*
X20380000Y-14454500D01*
X20330000Y-14504500D01*
X20380000Y-14554500D01*
X20380000Y-14808500D02*
X20430000Y-14758500D01*
X20380000Y-14708500D01*
X20330000Y-14758500D01*
X20380000Y-14808500D01*
X20380000Y-15062500D02*
X20430000Y-15012500D01*
X20380000Y-14962500D01*
X20330000Y-15012500D01*
X20380000Y-15062500D01*
X20642000Y-13080000D02*
X20692000Y-13030000D01*
X20642000Y-12980000D01*
X20592000Y-13030000D01*
X20642000Y-13080000D01*
X20764500Y-14871000D02*
X20814500Y-14821000D01*
X20764500Y-14771000D01*
X20714500Y-14821000D01*
X20764500Y-14871000D01*
X20827500Y-11129000D02*
X20877500Y-11079000D01*
X20827500Y-11029000D01*
X20777500Y-11079000D01*
X20827500Y-11129000D01*
X20896000Y-13080000D02*
X20946000Y-13030000D01*
X20896000Y-12980000D01*
X20846000Y-13030000D01*
X20896000Y-13080000D01*
X21018500Y-14871000D02*
X21068500Y-14821000D01*
X21018500Y-14771000D01*
X20968500Y-14821000D01*
X21018500Y-14871000D01*
X21081500Y-11129000D02*
X21131500Y-11079000D01*
X21081500Y-11029000D01*
X21031500Y-11079000D01*
X21081500Y-11129000D01*
X21150000Y-13080000D02*
X21200000Y-13030000D01*
X21150000Y-12980000D01*
X21100000Y-13030000D01*
X21150000Y-13080000D01*
X21272500Y-14871000D02*
X21322500Y-14821000D01*
X21272500Y-14771000D01*
X21222500Y-14821000D01*
X21272500Y-14871000D01*
X21335500Y-11129000D02*
X21385500Y-11079000D01*
X21335500Y-11029000D01*
X21285500Y-11079000D01*
X21335500Y-11129000D01*
D16*
X19107000Y-10430000D02*
X19217000Y-10540000D01*
X19217000Y-10430000D02*
X19107000Y-10540000D01*
X19217000Y-10485000D02*
G75*
G03*
X19217000Y-10485000I-55000J0D01*
G01*
X19107000Y-11880000D02*
X19217000Y-11990000D01*
X19217000Y-11880000D02*
X19107000Y-11990000D01*
X19217000Y-11935000D02*
G75*
G03*
X19217000Y-11935000I-55000J0D01*
G01*
X19357000Y-11880000D02*
X19467000Y-11990000D01*
X19467000Y-11880000D02*
X19357000Y-11990000D01*
X19467000Y-11935000D02*
G75*
G03*
X19467000Y-11935000I-55000J0D01*
G01*
X19607000Y-10430000D02*
X19717000Y-10540000D01*
X19717000Y-10430000D02*
X19607000Y-10540000D01*
X19717000Y-10485000D02*
G75*
G03*
X19717000Y-10485000I-55000J0D01*
G01*
X19607000Y-11880000D02*
X19717000Y-11990000D01*
X19717000Y-11880000D02*
X19607000Y-11990000D01*
X19717000Y-11935000D02*
G75*
G03*
X19717000Y-11935000I-55000J0D01*
G01*
D17*
X15122500Y-16996000D02*
X15242500Y-17116000D01*
X15242500Y-16996000D02*
X15122500Y-17116000D01*
X15182500Y-16996000D02*
X15182500Y-17116000D01*
X15122500Y-17056000D02*
X15242500Y-17056000D01*
X15822500Y-16996000D02*
X15942500Y-17116000D01*
X15942500Y-16996000D02*
X15822500Y-17116000D01*
X15882500Y-16996000D02*
X15882500Y-17116000D01*
X15822500Y-17056000D02*
X15942500Y-17056000D01*
D18*
X12022700Y-12688180D02*
X12152240Y-12817720D01*
X12152240Y-12688180D02*
X12022700Y-12817720D01*
X12133270Y-12798750D02*
X12133270Y-12707150D01*
X12041670Y-12707150D01*
X12041670Y-12798750D01*
X12133270Y-12798750D01*
X12022700Y-13188560D02*
X12152240Y-13318100D01*
X12152240Y-13188560D02*
X12022700Y-13318100D01*
X12133270Y-13299130D02*
X12133270Y-13207530D01*
X12041670Y-13207530D01*
X12041670Y-13299130D01*
X12133270Y-13299130D01*
X12421480Y-12688180D02*
X12551020Y-12817720D01*
X12551020Y-12688180D02*
X12421480Y-12817720D01*
X12532050Y-12798750D02*
X12532050Y-12707150D01*
X12440450Y-12707150D01*
X12440450Y-12798750D01*
X12532050Y-12798750D01*
X12421480Y-13188560D02*
X12551020Y-13318100D01*
X12551020Y-13188560D02*
X12421480Y-13318100D01*
X12532050Y-13299130D02*
X12532050Y-13207530D01*
X12440450Y-13207530D01*
X12440450Y-13299130D01*
X12532050Y-13299130D01*
D11*
X11129000Y-10470000D02*
X11329000Y-10670000D01*
X11329000Y-10470000D02*
X11129000Y-10670000D01*
X11229000Y-10670000D02*
X11329000Y-10570000D01*
X11229000Y-10470000D01*
X11129000Y-10570000D01*
X11229000Y-10670000D01*
X11891000Y-10470000D02*
X12091000Y-10670000D01*
X12091000Y-10470000D02*
X11891000Y-10670000D01*
X11991000Y-10670000D02*
X12091000Y-10570000D01*
X11991000Y-10470000D01*
X11891000Y-10570000D01*
X11991000Y-10670000D01*
X18752000Y-11085000D02*
X18952000Y-11285000D01*
X18952000Y-11085000D02*
X18752000Y-11285000D01*
X18852000Y-11285000D02*
X18952000Y-11185000D01*
X18852000Y-11085000D01*
X18752000Y-11185000D01*
X18852000Y-11285000D01*
X18752000Y-11160000D02*
X18752000Y-11210000D01*
X18952000Y-11160000D02*
X18952000Y-11210000D01*
X18752000Y-11210000D02*
G75*
G03*
X18952000Y-11210000I100000J0D01*
G01*
X18952000Y-11160000D02*
G75*
G03*
X18752000Y-11160000I-100000J0D01*
G01*
X19872000Y-11085000D02*
X20072000Y-11285000D01*
X20072000Y-11085000D02*
X19872000Y-11285000D01*
X19972000Y-11285000D02*
X20072000Y-11185000D01*
X19972000Y-11085000D01*
X19872000Y-11185000D01*
X19972000Y-11285000D01*
X19872000Y-11160000D02*
X19872000Y-11210000D01*
X20072000Y-11160000D02*
X20072000Y-11210000D01*
X19872000Y-11210000D02*
G75*
G03*
X20072000Y-11210000I100000J0D01*
G01*
X20072000Y-11160000D02*
G75*
G03*
X19872000Y-11160000I-100000J0D01*
G01*
D19*
X20270000Y-15855000D02*
X20270000Y-16105000D01*
X20145000Y-15980000D02*
X20395000Y-15980000D01*
X20395000Y-15980000D02*
G75*
G03*
X20395000Y-15980000I-125000J0D01*
G01*
X20770000Y-15855000D02*
X20770000Y-16105000D01*
X20645000Y-15980000D02*
X20895000Y-15980000D01*
X20895000Y-15980000D02*
G75*
G03*
X20895000Y-15980000I-125000J0D01*
G01*
D11*
X10252619Y-17515476D02*
X10252619Y-17315476D01*
X10300238Y-17315476D01*
X10328810Y-17325000D01*
X10347857Y-17344048D01*
X10357381Y-17363095D01*
X10366905Y-17401190D01*
X10366905Y-17429762D01*
X10357381Y-17467857D01*
X10347857Y-17486905D01*
X10328810Y-17505952D01*
X10300238Y-17515476D01*
X10252619Y-17515476D01*
X10452619Y-17515476D02*
X10452619Y-17382143D01*
X10452619Y-17420238D02*
X10462143Y-17401190D01*
X10471667Y-17391667D01*
X10490714Y-17382143D01*
X10509762Y-17382143D01*
X10576429Y-17515476D02*
X10576429Y-17382143D01*
X10576429Y-17315476D02*
X10566905Y-17325000D01*
X10576429Y-17334524D01*
X10585952Y-17325000D01*
X10576429Y-17315476D01*
X10576429Y-17334524D01*
X10700238Y-17515476D02*
X10681190Y-17505952D01*
X10671667Y-17486905D01*
X10671667Y-17315476D01*
X10805000Y-17515476D02*
X10785952Y-17505952D01*
X10776429Y-17486905D01*
X10776429Y-17315476D01*
X11033571Y-17515476D02*
X11033571Y-17315476D01*
X11100238Y-17458333D01*
X11166905Y-17315476D01*
X11166905Y-17515476D01*
X11347857Y-17515476D02*
X11347857Y-17410714D01*
X11338333Y-17391667D01*
X11319286Y-17382143D01*
X11281190Y-17382143D01*
X11262143Y-17391667D01*
X11347857Y-17505952D02*
X11328809Y-17515476D01*
X11281190Y-17515476D01*
X11262143Y-17505952D01*
X11252619Y-17486905D01*
X11252619Y-17467857D01*
X11262143Y-17448810D01*
X11281190Y-17439286D01*
X11328809Y-17439286D01*
X11347857Y-17429762D01*
X11443095Y-17382143D02*
X11443095Y-17582143D01*
X11443095Y-17391667D02*
X11462143Y-17382143D01*
X11500238Y-17382143D01*
X11519286Y-17391667D01*
X11528809Y-17401190D01*
X11538333Y-17420238D01*
X11538333Y-17477381D01*
X11528809Y-17496429D01*
X11519286Y-17505952D01*
X11500238Y-17515476D01*
X11462143Y-17515476D01*
X11443095Y-17505952D01*
X11624048Y-17496429D02*
X11633571Y-17505952D01*
X11624048Y-17515476D01*
X11614524Y-17505952D01*
X11624048Y-17496429D01*
X11624048Y-17515476D01*
X11624048Y-17391667D02*
X11633571Y-17401190D01*
X11624048Y-17410714D01*
X11614524Y-17401190D01*
X11624048Y-17391667D01*
X11624048Y-17410714D01*
D12*
X9955000Y-17825000D02*
X9995000Y-17865000D01*
X9995000Y-17825000D02*
X9955000Y-17865000D01*
D11*
X10290714Y-17735476D02*
X10309762Y-17735476D01*
X10328810Y-17745000D01*
X10338333Y-17754524D01*
X10347857Y-17773571D01*
X10357381Y-17811667D01*
X10357381Y-17859286D01*
X10347857Y-17897381D01*
X10338333Y-17916429D01*
X10328810Y-17925952D01*
X10309762Y-17935476D01*
X10290714Y-17935476D01*
X10271667Y-17925952D01*
X10262143Y-17916429D01*
X10252619Y-17897381D01*
X10243095Y-17859286D01*
X10243095Y-17811667D01*
X10252619Y-17773571D01*
X10262143Y-17754524D01*
X10271667Y-17745000D01*
X10290714Y-17735476D01*
X10443095Y-17916429D02*
X10452619Y-17925952D01*
X10443095Y-17935476D01*
X10433571Y-17925952D01*
X10443095Y-17916429D01*
X10443095Y-17935476D01*
X10624048Y-17802143D02*
X10624048Y-17935476D01*
X10576429Y-17725952D02*
X10528810Y-17868810D01*
X10652619Y-17868810D01*
X10766905Y-17735476D02*
X10785952Y-17735476D01*
X10805000Y-17745000D01*
X10814524Y-17754524D01*
X10824048Y-17773571D01*
X10833571Y-17811667D01*
X10833571Y-17859286D01*
X10824048Y-17897381D01*
X10814524Y-17916429D01*
X10805000Y-17925952D01*
X10785952Y-17935476D01*
X10766905Y-17935476D01*
X10747857Y-17925952D01*
X10738333Y-17916429D01*
X10728810Y-17897381D01*
X10719286Y-17859286D01*
X10719286Y-17811667D01*
X10728810Y-17773571D01*
X10738333Y-17754524D01*
X10747857Y-17745000D01*
X10766905Y-17735476D01*
X10957381Y-17735476D02*
X10976429Y-17735476D01*
X10995476Y-17745000D01*
X11005000Y-17754524D01*
X11014524Y-17773571D01*
X11024048Y-17811667D01*
X11024048Y-17859286D01*
X11014524Y-17897381D01*
X11005000Y-17916429D01*
X10995476Y-17925952D01*
X10976429Y-17935476D01*
X10957381Y-17935476D01*
X10938333Y-17925952D01*
X10928810Y-17916429D01*
X10919286Y-17897381D01*
X10909762Y-17859286D01*
X10909762Y-17811667D01*
X10919286Y-17773571D01*
X10928810Y-17754524D01*
X10938333Y-17745000D01*
X10957381Y-17735476D01*
X11109762Y-17935476D02*
X11109762Y-17802143D01*
X11109762Y-17821190D02*
X11119286Y-17811667D01*
X11138333Y-17802143D01*
X11166905Y-17802143D01*
X11185952Y-17811667D01*
X11195476Y-17830714D01*
X11195476Y-17935476D01*
X11195476Y-17830714D02*
X11205000Y-17811667D01*
X11224048Y-17802143D01*
X11252619Y-17802143D01*
X11271667Y-17811667D01*
X11281190Y-17830714D01*
X11281190Y-17935476D01*
X11376428Y-17935476D02*
X11376428Y-17802143D01*
X11376428Y-17821190D02*
X11385952Y-17811667D01*
X11405000Y-17802143D01*
X11433571Y-17802143D01*
X11452619Y-17811667D01*
X11462143Y-17830714D01*
X11462143Y-17935476D01*
X11462143Y-17830714D02*
X11471667Y-17811667D01*
X11490714Y-17802143D01*
X11519286Y-17802143D01*
X11538333Y-17811667D01*
X11547857Y-17830714D01*
X11547857Y-17935476D01*
X11938333Y-17725952D02*
X11766905Y-17983095D01*
X12195476Y-17735476D02*
X12214524Y-17735476D01*
X12233571Y-17745000D01*
X12243095Y-17754524D01*
X12252619Y-17773571D01*
X12262143Y-17811667D01*
X12262143Y-17859286D01*
X12252619Y-17897381D01*
X12243095Y-17916429D01*
X12233571Y-17925952D01*
X12214524Y-17935476D01*
X12195476Y-17935476D01*
X12176428Y-17925952D01*
X12166905Y-17916429D01*
X12157381Y-17897381D01*
X12147857Y-17859286D01*
X12147857Y-17811667D01*
X12157381Y-17773571D01*
X12166905Y-17754524D01*
X12176428Y-17745000D01*
X12195476Y-17735476D01*
X12347857Y-17916429D02*
X12357381Y-17925952D01*
X12347857Y-17935476D01*
X12338333Y-17925952D01*
X12347857Y-17916429D01*
X12347857Y-17935476D01*
X12481190Y-17735476D02*
X12500238Y-17735476D01*
X12519286Y-17745000D01*
X12528809Y-17754524D01*
X12538333Y-17773571D01*
X12547857Y-17811667D01*
X12547857Y-17859286D01*
X12538333Y-17897381D01*
X12528809Y-17916429D01*
X12519286Y-17925952D01*
X12500238Y-17935476D01*
X12481190Y-17935476D01*
X12462143Y-17925952D01*
X12452619Y-17916429D01*
X12443095Y-17897381D01*
X12433571Y-17859286D01*
X12433571Y-17811667D01*
X12443095Y-17773571D01*
X12452619Y-17754524D01*
X12462143Y-17745000D01*
X12481190Y-17735476D01*
X12738333Y-17935476D02*
X12624048Y-17935476D01*
X12681190Y-17935476D02*
X12681190Y-17735476D01*
X12662143Y-17764048D01*
X12643095Y-17783095D01*
X12624048Y-17792619D01*
X12919286Y-17735476D02*
X12824048Y-17735476D01*
X12814524Y-17830714D01*
X12824048Y-17821190D01*
X12843095Y-17811667D01*
X12890714Y-17811667D01*
X12909762Y-17821190D01*
X12919286Y-17830714D01*
X12928809Y-17849762D01*
X12928809Y-17897381D01*
X12919286Y-17916429D01*
X12909762Y-17925952D01*
X12890714Y-17935476D01*
X12843095Y-17935476D01*
X12824048Y-17925952D01*
X12814524Y-17916429D01*
X12995476Y-17735476D02*
X13128809Y-17735476D01*
X13043095Y-17935476D01*
X13195476Y-17735476D02*
X13195476Y-17773571D01*
X13271667Y-17735476D02*
X13271667Y-17773571D01*
X13566905Y-18011667D02*
X13557381Y-18002143D01*
X13538333Y-17973571D01*
X13528809Y-17954524D01*
X13519286Y-17925952D01*
X13509762Y-17878333D01*
X13509762Y-17840238D01*
X13519286Y-17792619D01*
X13528809Y-17764048D01*
X13538333Y-17745000D01*
X13557381Y-17716429D01*
X13566905Y-17706905D01*
X13747857Y-17935476D02*
X13633571Y-17935476D01*
X13690714Y-17935476D02*
X13690714Y-17735476D01*
X13671667Y-17764048D01*
X13652619Y-17783095D01*
X13633571Y-17792619D01*
X13862143Y-17821190D02*
X13843095Y-17811667D01*
X13833571Y-17802143D01*
X13824048Y-17783095D01*
X13824048Y-17773571D01*
X13833571Y-17754524D01*
X13843095Y-17745000D01*
X13862143Y-17735476D01*
X13900238Y-17735476D01*
X13919286Y-17745000D01*
X13928809Y-17754524D01*
X13938333Y-17773571D01*
X13938333Y-17783095D01*
X13928809Y-17802143D01*
X13919286Y-17811667D01*
X13900238Y-17821190D01*
X13862143Y-17821190D01*
X13843095Y-17830714D01*
X13833571Y-17840238D01*
X13824048Y-17859286D01*
X13824048Y-17897381D01*
X13833571Y-17916429D01*
X13843095Y-17925952D01*
X13862143Y-17935476D01*
X13900238Y-17935476D01*
X13919286Y-17925952D01*
X13928809Y-17916429D01*
X13938333Y-17897381D01*
X13938333Y-17859286D01*
X13928809Y-17840238D01*
X13919286Y-17830714D01*
X13900238Y-17821190D01*
X14033571Y-17935476D02*
X14071667Y-17935476D01*
X14090714Y-17925952D01*
X14100238Y-17916429D01*
X14119286Y-17887857D01*
X14128809Y-17849762D01*
X14128809Y-17773571D01*
X14119286Y-17754524D01*
X14109762Y-17745000D01*
X14090714Y-17735476D01*
X14052619Y-17735476D01*
X14033571Y-17745000D01*
X14024048Y-17754524D01*
X14014524Y-17773571D01*
X14014524Y-17821190D01*
X14024048Y-17840238D01*
X14033571Y-17849762D01*
X14052619Y-17859286D01*
X14090714Y-17859286D01*
X14109762Y-17849762D01*
X14119286Y-17840238D01*
X14128809Y-17821190D01*
X14366905Y-17935476D02*
X14366905Y-17735476D01*
X14452619Y-17935476D02*
X14452619Y-17830714D01*
X14443095Y-17811667D01*
X14424048Y-17802143D01*
X14395476Y-17802143D01*
X14376428Y-17811667D01*
X14366905Y-17821190D01*
X14576428Y-17935476D02*
X14557381Y-17925952D01*
X14547857Y-17916429D01*
X14538333Y-17897381D01*
X14538333Y-17840238D01*
X14547857Y-17821190D01*
X14557381Y-17811667D01*
X14576428Y-17802143D01*
X14605000Y-17802143D01*
X14624048Y-17811667D01*
X14633571Y-17821190D01*
X14643095Y-17840238D01*
X14643095Y-17897381D01*
X14633571Y-17916429D01*
X14624048Y-17925952D01*
X14605000Y-17935476D01*
X14576428Y-17935476D01*
X14757381Y-17935476D02*
X14738333Y-17925952D01*
X14728809Y-17906905D01*
X14728809Y-17735476D01*
X14909762Y-17925952D02*
X14890714Y-17935476D01*
X14852619Y-17935476D01*
X14833571Y-17925952D01*
X14824048Y-17906905D01*
X14824048Y-17830714D01*
X14833571Y-17811667D01*
X14852619Y-17802143D01*
X14890714Y-17802143D01*
X14909762Y-17811667D01*
X14919286Y-17830714D01*
X14919286Y-17849762D01*
X14824048Y-17868810D01*
X14995476Y-17925952D02*
X15014524Y-17935476D01*
X15052619Y-17935476D01*
X15071667Y-17925952D01*
X15081190Y-17906905D01*
X15081190Y-17897381D01*
X15071667Y-17878333D01*
X15052619Y-17868810D01*
X15024048Y-17868810D01*
X15005000Y-17859286D01*
X14995476Y-17840238D01*
X14995476Y-17830714D01*
X15005000Y-17811667D01*
X15024048Y-17802143D01*
X15052619Y-17802143D01*
X15071667Y-17811667D01*
X15147857Y-18011667D02*
X15157381Y-18002143D01*
X15176428Y-17973571D01*
X15185952Y-17954524D01*
X15195476Y-17925952D01*
X15205000Y-17878333D01*
X15205000Y-17840238D01*
X15195476Y-17792619D01*
X15185952Y-17764048D01*
X15176428Y-17745000D01*
X15157381Y-17716429D01*
X15147857Y-17706905D01*
D13*
X9995000Y-18109000D02*
G75*
G03*
X9995000Y-18109000I-30000J0D01*
G01*
D11*
X10290714Y-17999476D02*
X10309762Y-17999476D01*
X10328810Y-18009000D01*
X10338333Y-18018524D01*
X10347857Y-18037571D01*
X10357381Y-18075667D01*
X10357381Y-18123286D01*
X10347857Y-18161381D01*
X10338333Y-18180429D01*
X10328810Y-18189952D01*
X10309762Y-18199476D01*
X10290714Y-18199476D01*
X10271667Y-18189952D01*
X10262143Y-18180429D01*
X10252619Y-18161381D01*
X10243095Y-18123286D01*
X10243095Y-18075667D01*
X10252619Y-18037571D01*
X10262143Y-18018524D01*
X10271667Y-18009000D01*
X10290714Y-17999476D01*
X10443095Y-18180429D02*
X10452619Y-18189952D01*
X10443095Y-18199476D01*
X10433571Y-18189952D01*
X10443095Y-18180429D01*
X10443095Y-18199476D01*
X10624048Y-17999476D02*
X10585952Y-17999476D01*
X10566905Y-18009000D01*
X10557381Y-18018524D01*
X10538333Y-18047095D01*
X10528810Y-18085190D01*
X10528810Y-18161381D01*
X10538333Y-18180429D01*
X10547857Y-18189952D01*
X10566905Y-18199476D01*
X10605000Y-18199476D01*
X10624048Y-18189952D01*
X10633571Y-18180429D01*
X10643095Y-18161381D01*
X10643095Y-18113762D01*
X10633571Y-18094714D01*
X10624048Y-18085190D01*
X10605000Y-18075667D01*
X10566905Y-18075667D01*
X10547857Y-18085190D01*
X10538333Y-18094714D01*
X10528810Y-18113762D01*
X10766905Y-17999476D02*
X10785952Y-17999476D01*
X10805000Y-18009000D01*
X10814524Y-18018524D01*
X10824048Y-18037571D01*
X10833571Y-18075667D01*
X10833571Y-18123286D01*
X10824048Y-18161381D01*
X10814524Y-18180429D01*
X10805000Y-18189952D01*
X10785952Y-18199476D01*
X10766905Y-18199476D01*
X10747857Y-18189952D01*
X10738333Y-18180429D01*
X10728810Y-18161381D01*
X10719286Y-18123286D01*
X10719286Y-18075667D01*
X10728810Y-18037571D01*
X10738333Y-18018524D01*
X10747857Y-18009000D01*
X10766905Y-17999476D01*
X10957381Y-17999476D02*
X10976429Y-17999476D01*
X10995476Y-18009000D01*
X11005000Y-18018524D01*
X11014524Y-18037571D01*
X11024048Y-18075667D01*
X11024048Y-18123286D01*
X11014524Y-18161381D01*
X11005000Y-18180429D01*
X10995476Y-18189952D01*
X10976429Y-18199476D01*
X10957381Y-18199476D01*
X10938333Y-18189952D01*
X10928810Y-18180429D01*
X10919286Y-18161381D01*
X10909762Y-18123286D01*
X10909762Y-18075667D01*
X10919286Y-18037571D01*
X10928810Y-18018524D01*
X10938333Y-18009000D01*
X10957381Y-17999476D01*
X11109762Y-18199476D02*
X11109762Y-18066143D01*
X11109762Y-18085190D02*
X11119286Y-18075667D01*
X11138333Y-18066143D01*
X11166905Y-18066143D01*
X11185952Y-18075667D01*
X11195476Y-18094714D01*
X11195476Y-18199476D01*
X11195476Y-18094714D02*
X11205000Y-18075667D01*
X11224048Y-18066143D01*
X11252619Y-18066143D01*
X11271667Y-18075667D01*
X11281190Y-18094714D01*
X11281190Y-18199476D01*
X11376428Y-18199476D02*
X11376428Y-18066143D01*
X11376428Y-18085190D02*
X11385952Y-18075667D01*
X11405000Y-18066143D01*
X11433571Y-18066143D01*
X11452619Y-18075667D01*
X11462143Y-18094714D01*
X11462143Y-18199476D01*
X11462143Y-18094714D02*
X11471667Y-18075667D01*
X11490714Y-18066143D01*
X11519286Y-18066143D01*
X11538333Y-18075667D01*
X11547857Y-18094714D01*
X11547857Y-18199476D01*
X11938333Y-17989952D02*
X11766905Y-18247095D01*
X12195476Y-17999476D02*
X12214524Y-17999476D01*
X12233571Y-18009000D01*
X12243095Y-18018524D01*
X12252619Y-18037571D01*
X12262143Y-18075667D01*
X12262143Y-18123286D01*
X12252619Y-18161381D01*
X12243095Y-18180429D01*
X12233571Y-18189952D01*
X12214524Y-18199476D01*
X12195476Y-18199476D01*
X12176428Y-18189952D01*
X12166905Y-18180429D01*
X12157381Y-18161381D01*
X12147857Y-18123286D01*
X12147857Y-18075667D01*
X12157381Y-18037571D01*
X12166905Y-18018524D01*
X12176428Y-18009000D01*
X12195476Y-17999476D01*
X12347857Y-18180429D02*
X12357381Y-18189952D01*
X12347857Y-18199476D01*
X12338333Y-18189952D01*
X12347857Y-18180429D01*
X12347857Y-18199476D01*
X12481190Y-17999476D02*
X12500238Y-17999476D01*
X12519286Y-18009000D01*
X12528809Y-18018524D01*
X12538333Y-18037571D01*
X12547857Y-18075667D01*
X12547857Y-18123286D01*
X12538333Y-18161381D01*
X12528809Y-18180429D01*
X12519286Y-18189952D01*
X12500238Y-18199476D01*
X12481190Y-18199476D01*
X12462143Y-18189952D01*
X12452619Y-18180429D01*
X12443095Y-18161381D01*
X12433571Y-18123286D01*
X12433571Y-18075667D01*
X12443095Y-18037571D01*
X12452619Y-18018524D01*
X12462143Y-18009000D01*
X12481190Y-17999476D01*
X12624048Y-18018524D02*
X12633571Y-18009000D01*
X12652619Y-17999476D01*
X12700238Y-17999476D01*
X12719286Y-18009000D01*
X12728809Y-18018524D01*
X12738333Y-18037571D01*
X12738333Y-18056619D01*
X12728809Y-18085190D01*
X12614524Y-18199476D01*
X12738333Y-18199476D01*
X12805000Y-17999476D02*
X12928809Y-17999476D01*
X12862143Y-18075667D01*
X12890714Y-18075667D01*
X12909762Y-18085190D01*
X12919286Y-18094714D01*
X12928809Y-18113762D01*
X12928809Y-18161381D01*
X12919286Y-18180429D01*
X12909762Y-18189952D01*
X12890714Y-18199476D01*
X12833571Y-18199476D01*
X12814524Y-18189952D01*
X12805000Y-18180429D01*
X13100238Y-17999476D02*
X13062143Y-17999476D01*
X13043095Y-18009000D01*
X13033571Y-18018524D01*
X13014524Y-18047095D01*
X13005000Y-18085190D01*
X13005000Y-18161381D01*
X13014524Y-18180429D01*
X13024048Y-18189952D01*
X13043095Y-18199476D01*
X13081190Y-18199476D01*
X13100238Y-18189952D01*
X13109762Y-18180429D01*
X13119286Y-18161381D01*
X13119286Y-18113762D01*
X13109762Y-18094714D01*
X13100238Y-18085190D01*
X13081190Y-18075667D01*
X13043095Y-18075667D01*
X13024048Y-18085190D01*
X13014524Y-18094714D01*
X13005000Y-18113762D01*
X13195476Y-17999476D02*
X13195476Y-18037571D01*
X13271667Y-17999476D02*
X13271667Y-18037571D01*
X13566905Y-18275667D02*
X13557381Y-18266143D01*
X13538333Y-18237571D01*
X13528809Y-18218524D01*
X13519286Y-18189952D01*
X13509762Y-18142333D01*
X13509762Y-18104238D01*
X13519286Y-18056619D01*
X13528809Y-18028048D01*
X13538333Y-18009000D01*
X13557381Y-17980429D01*
X13566905Y-17970905D01*
X13633571Y-18018524D02*
X13643095Y-18009000D01*
X13662143Y-17999476D01*
X13709762Y-17999476D01*
X13728809Y-18009000D01*
X13738333Y-18018524D01*
X13747857Y-18037571D01*
X13747857Y-18056619D01*
X13738333Y-18085190D01*
X13624048Y-18199476D01*
X13747857Y-18199476D01*
X13928809Y-17999476D02*
X13833571Y-17999476D01*
X13824048Y-18094714D01*
X13833571Y-18085190D01*
X13852619Y-18075667D01*
X13900238Y-18075667D01*
X13919286Y-18085190D01*
X13928809Y-18094714D01*
X13938333Y-18113762D01*
X13938333Y-18161381D01*
X13928809Y-18180429D01*
X13919286Y-18189952D01*
X13900238Y-18199476D01*
X13852619Y-18199476D01*
X13833571Y-18189952D01*
X13824048Y-18180429D01*
X14176428Y-18199476D02*
X14176428Y-17999476D01*
X14262143Y-18199476D02*
X14262143Y-18094714D01*
X14252619Y-18075667D01*
X14233571Y-18066143D01*
X14205000Y-18066143D01*
X14185952Y-18075667D01*
X14176428Y-18085190D01*
X14385952Y-18199476D02*
X14366905Y-18189952D01*
X14357381Y-18180429D01*
X14347857Y-18161381D01*
X14347857Y-18104238D01*
X14357381Y-18085190D01*
X14366905Y-18075667D01*
X14385952Y-18066143D01*
X14414524Y-18066143D01*
X14433571Y-18075667D01*
X14443095Y-18085190D01*
X14452619Y-18104238D01*
X14452619Y-18161381D01*
X14443095Y-18180429D01*
X14433571Y-18189952D01*
X14414524Y-18199476D01*
X14385952Y-18199476D01*
X14566905Y-18199476D02*
X14547857Y-18189952D01*
X14538333Y-18170905D01*
X14538333Y-17999476D01*
X14719286Y-18189952D02*
X14700238Y-18199476D01*
X14662143Y-18199476D01*
X14643095Y-18189952D01*
X14633571Y-18170905D01*
X14633571Y-18094714D01*
X14643095Y-18075667D01*
X14662143Y-18066143D01*
X14700238Y-18066143D01*
X14719286Y-18075667D01*
X14728809Y-18094714D01*
X14728809Y-18113762D01*
X14633571Y-18132810D01*
X14805000Y-18189952D02*
X14824048Y-18199476D01*
X14862143Y-18199476D01*
X14881190Y-18189952D01*
X14890714Y-18170905D01*
X14890714Y-18161381D01*
X14881190Y-18142333D01*
X14862143Y-18132810D01*
X14833571Y-18132810D01*
X14814524Y-18123286D01*
X14805000Y-18104238D01*
X14805000Y-18094714D01*
X14814524Y-18075667D01*
X14833571Y-18066143D01*
X14862143Y-18066143D01*
X14881190Y-18075667D01*
X14957381Y-18275667D02*
X14966905Y-18266143D01*
X14985952Y-18237571D01*
X14995476Y-18218524D01*
X15005000Y-18189952D01*
X15014524Y-18142333D01*
X15014524Y-18104238D01*
X15005000Y-18056619D01*
X14995476Y-18028048D01*
X14985952Y-18009000D01*
X14966905Y-17980429D01*
X14957381Y-17970905D01*
D14*
X9955000Y-18333000D02*
X9955000Y-18413000D01*
X9915000Y-18373000D02*
X9995000Y-18373000D01*
D11*
X10290714Y-18263476D02*
X10309762Y-18263476D01*
X10328810Y-18273000D01*
X10338333Y-18282524D01*
X10347857Y-18301571D01*
X10357381Y-18339667D01*
X10357381Y-18387286D01*
X10347857Y-18425381D01*
X10338333Y-18444429D01*
X10328810Y-18453952D01*
X10309762Y-18463476D01*
X10290714Y-18463476D01*
X10271667Y-18453952D01*
X10262143Y-18444429D01*
X10252619Y-18425381D01*
X10243095Y-18387286D01*
X10243095Y-18339667D01*
X10252619Y-18301571D01*
X10262143Y-18282524D01*
X10271667Y-18273000D01*
X10290714Y-18263476D01*
X10443095Y-18444429D02*
X10452619Y-18453952D01*
X10443095Y-18463476D01*
X10433571Y-18453952D01*
X10443095Y-18444429D01*
X10443095Y-18463476D01*
X10566905Y-18349190D02*
X10547857Y-18339667D01*
X10538333Y-18330143D01*
X10528810Y-18311095D01*
X10528810Y-18301571D01*
X10538333Y-18282524D01*
X10547857Y-18273000D01*
X10566905Y-18263476D01*
X10605000Y-18263476D01*
X10624048Y-18273000D01*
X10633571Y-18282524D01*
X10643095Y-18301571D01*
X10643095Y-18311095D01*
X10633571Y-18330143D01*
X10624048Y-18339667D01*
X10605000Y-18349190D01*
X10566905Y-18349190D01*
X10547857Y-18358714D01*
X10538333Y-18368238D01*
X10528810Y-18387286D01*
X10528810Y-18425381D01*
X10538333Y-18444429D01*
X10547857Y-18453952D01*
X10566905Y-18463476D01*
X10605000Y-18463476D01*
X10624048Y-18453952D01*
X10633571Y-18444429D01*
X10643095Y-18425381D01*
X10643095Y-18387286D01*
X10633571Y-18368238D01*
X10624048Y-18358714D01*
X10605000Y-18349190D01*
X10766905Y-18263476D02*
X10785952Y-18263476D01*
X10805000Y-18273000D01*
X10814524Y-18282524D01*
X10824048Y-18301571D01*
X10833571Y-18339667D01*
X10833571Y-18387286D01*
X10824048Y-18425381D01*
X10814524Y-18444429D01*
X10805000Y-18453952D01*
X10785952Y-18463476D01*
X10766905Y-18463476D01*
X10747857Y-18453952D01*
X10738333Y-18444429D01*
X10728810Y-18425381D01*
X10719286Y-18387286D01*
X10719286Y-18339667D01*
X10728810Y-18301571D01*
X10738333Y-18282524D01*
X10747857Y-18273000D01*
X10766905Y-18263476D01*
X10957381Y-18263476D02*
X10976429Y-18263476D01*
X10995476Y-18273000D01*
X11005000Y-18282524D01*
X11014524Y-18301571D01*
X11024048Y-18339667D01*
X11024048Y-18387286D01*
X11014524Y-18425381D01*
X11005000Y-18444429D01*
X10995476Y-18453952D01*
X10976429Y-18463476D01*
X10957381Y-18463476D01*
X10938333Y-18453952D01*
X10928810Y-18444429D01*
X10919286Y-18425381D01*
X10909762Y-18387286D01*
X10909762Y-18339667D01*
X10919286Y-18301571D01*
X10928810Y-18282524D01*
X10938333Y-18273000D01*
X10957381Y-18263476D01*
X11109762Y-18463476D02*
X11109762Y-18330143D01*
X11109762Y-18349190D02*
X11119286Y-18339667D01*
X11138333Y-18330143D01*
X11166905Y-18330143D01*
X11185952Y-18339667D01*
X11195476Y-18358714D01*
X11195476Y-18463476D01*
X11195476Y-18358714D02*
X11205000Y-18339667D01*
X11224048Y-18330143D01*
X11252619Y-18330143D01*
X11271667Y-18339667D01*
X11281190Y-18358714D01*
X11281190Y-18463476D01*
X11376428Y-18463476D02*
X11376428Y-18330143D01*
X11376428Y-18349190D02*
X11385952Y-18339667D01*
X11405000Y-18330143D01*
X11433571Y-18330143D01*
X11452619Y-18339667D01*
X11462143Y-18358714D01*
X11462143Y-18463476D01*
X11462143Y-18358714D02*
X11471667Y-18339667D01*
X11490714Y-18330143D01*
X11519286Y-18330143D01*
X11538333Y-18339667D01*
X11547857Y-18358714D01*
X11547857Y-18463476D01*
X11938333Y-18253952D02*
X11766905Y-18511095D01*
X12195476Y-18263476D02*
X12214524Y-18263476D01*
X12233571Y-18273000D01*
X12243095Y-18282524D01*
X12252619Y-18301571D01*
X12262143Y-18339667D01*
X12262143Y-18387286D01*
X12252619Y-18425381D01*
X12243095Y-18444429D01*
X12233571Y-18453952D01*
X12214524Y-18463476D01*
X12195476Y-18463476D01*
X12176428Y-18453952D01*
X12166905Y-18444429D01*
X12157381Y-18425381D01*
X12147857Y-18387286D01*
X12147857Y-18339667D01*
X12157381Y-18301571D01*
X12166905Y-18282524D01*
X12176428Y-18273000D01*
X12195476Y-18263476D01*
X12347857Y-18444429D02*
X12357381Y-18453952D01*
X12347857Y-18463476D01*
X12338333Y-18453952D01*
X12347857Y-18444429D01*
X12347857Y-18463476D01*
X12481190Y-18263476D02*
X12500238Y-18263476D01*
X12519286Y-18273000D01*
X12528809Y-18282524D01*
X12538333Y-18301571D01*
X12547857Y-18339667D01*
X12547857Y-18387286D01*
X12538333Y-18425381D01*
X12528809Y-18444429D01*
X12519286Y-18453952D01*
X12500238Y-18463476D01*
X12481190Y-18463476D01*
X12462143Y-18453952D01*
X12452619Y-18444429D01*
X12443095Y-18425381D01*
X12433571Y-18387286D01*
X12433571Y-18339667D01*
X12443095Y-18301571D01*
X12452619Y-18282524D01*
X12462143Y-18273000D01*
X12481190Y-18263476D01*
X12614524Y-18263476D02*
X12738333Y-18263476D01*
X12671667Y-18339667D01*
X12700238Y-18339667D01*
X12719286Y-18349190D01*
X12728809Y-18358714D01*
X12738333Y-18377762D01*
X12738333Y-18425381D01*
X12728809Y-18444429D01*
X12719286Y-18453952D01*
X12700238Y-18463476D01*
X12643095Y-18463476D01*
X12624048Y-18453952D01*
X12614524Y-18444429D01*
X12928809Y-18463476D02*
X12814524Y-18463476D01*
X12871667Y-18463476D02*
X12871667Y-18263476D01*
X12852619Y-18292048D01*
X12833571Y-18311095D01*
X12814524Y-18320619D01*
X13109762Y-18263476D02*
X13014524Y-18263476D01*
X13005000Y-18358714D01*
X13014524Y-18349190D01*
X13033571Y-18339667D01*
X13081190Y-18339667D01*
X13100238Y-18349190D01*
X13109762Y-18358714D01*
X13119286Y-18377762D01*
X13119286Y-18425381D01*
X13109762Y-18444429D01*
X13100238Y-18453952D01*
X13081190Y-18463476D01*
X13033571Y-18463476D01*
X13014524Y-18453952D01*
X13005000Y-18444429D01*
X13195476Y-18263476D02*
X13195476Y-18301571D01*
X13271667Y-18263476D02*
X13271667Y-18301571D01*
X13566905Y-18539667D02*
X13557381Y-18530143D01*
X13538333Y-18501571D01*
X13528809Y-18482524D01*
X13519286Y-18453952D01*
X13509762Y-18406333D01*
X13509762Y-18368238D01*
X13519286Y-18320619D01*
X13528809Y-18292048D01*
X13538333Y-18273000D01*
X13557381Y-18244429D01*
X13566905Y-18234905D01*
X13633571Y-18282524D02*
X13643095Y-18273000D01*
X13662143Y-18263476D01*
X13709762Y-18263476D01*
X13728809Y-18273000D01*
X13738333Y-18282524D01*
X13747857Y-18301571D01*
X13747857Y-18320619D01*
X13738333Y-18349190D01*
X13624048Y-18463476D01*
X13747857Y-18463476D01*
X13985952Y-18463476D02*
X13985952Y-18263476D01*
X14071667Y-18463476D02*
X14071667Y-18358714D01*
X14062143Y-18339667D01*
X14043095Y-18330143D01*
X14014524Y-18330143D01*
X13995476Y-18339667D01*
X13985952Y-18349190D01*
X14195476Y-18463476D02*
X14176428Y-18453952D01*
X14166905Y-18444429D01*
X14157381Y-18425381D01*
X14157381Y-18368238D01*
X14166905Y-18349190D01*
X14176428Y-18339667D01*
X14195476Y-18330143D01*
X14224048Y-18330143D01*
X14243095Y-18339667D01*
X14252619Y-18349190D01*
X14262143Y-18368238D01*
X14262143Y-18425381D01*
X14252619Y-18444429D01*
X14243095Y-18453952D01*
X14224048Y-18463476D01*
X14195476Y-18463476D01*
X14376428Y-18463476D02*
X14357381Y-18453952D01*
X14347857Y-18434905D01*
X14347857Y-18263476D01*
X14528809Y-18453952D02*
X14509762Y-18463476D01*
X14471667Y-18463476D01*
X14452619Y-18453952D01*
X14443095Y-18434905D01*
X14443095Y-18358714D01*
X14452619Y-18339667D01*
X14471667Y-18330143D01*
X14509762Y-18330143D01*
X14528809Y-18339667D01*
X14538333Y-18358714D01*
X14538333Y-18377762D01*
X14443095Y-18396810D01*
X14614524Y-18453952D02*
X14633571Y-18463476D01*
X14671667Y-18463476D01*
X14690714Y-18453952D01*
X14700238Y-18434905D01*
X14700238Y-18425381D01*
X14690714Y-18406333D01*
X14671667Y-18396810D01*
X14643095Y-18396810D01*
X14624048Y-18387286D01*
X14614524Y-18368238D01*
X14614524Y-18358714D01*
X14624048Y-18339667D01*
X14643095Y-18330143D01*
X14671667Y-18330143D01*
X14690714Y-18339667D01*
X14766905Y-18539667D02*
X14776428Y-18530143D01*
X14795476Y-18501571D01*
X14805000Y-18482524D01*
X14814524Y-18453952D01*
X14824048Y-18406333D01*
X14824048Y-18368238D01*
X14814524Y-18320619D01*
X14805000Y-18292048D01*
X14795476Y-18273000D01*
X14776428Y-18244429D01*
X14766905Y-18234905D01*
D15*
X9981820Y-18668820D02*
X9981820Y-18605180D01*
X9918180Y-18605180D01*
X9918180Y-18668820D01*
X9981820Y-18668820D01*
D11*
X10290714Y-18527476D02*
X10309762Y-18527476D01*
X10328810Y-18537000D01*
X10338333Y-18546524D01*
X10347857Y-18565571D01*
X10357381Y-18603667D01*
X10357381Y-18651286D01*
X10347857Y-18689381D01*
X10338333Y-18708429D01*
X10328810Y-18717952D01*
X10309762Y-18727476D01*
X10290714Y-18727476D01*
X10271667Y-18717952D01*
X10262143Y-18708429D01*
X10252619Y-18689381D01*
X10243095Y-18651286D01*
X10243095Y-18603667D01*
X10252619Y-18565571D01*
X10262143Y-18546524D01*
X10271667Y-18537000D01*
X10290714Y-18527476D01*
X10443095Y-18708429D02*
X10452619Y-18717952D01*
X10443095Y-18727476D01*
X10433571Y-18717952D01*
X10443095Y-18708429D01*
X10443095Y-18727476D01*
X10547857Y-18727476D02*
X10585952Y-18727476D01*
X10605000Y-18717952D01*
X10614524Y-18708429D01*
X10633571Y-18679857D01*
X10643095Y-18641762D01*
X10643095Y-18565571D01*
X10633571Y-18546524D01*
X10624048Y-18537000D01*
X10605000Y-18527476D01*
X10566905Y-18527476D01*
X10547857Y-18537000D01*
X10538333Y-18546524D01*
X10528810Y-18565571D01*
X10528810Y-18613190D01*
X10538333Y-18632238D01*
X10547857Y-18641762D01*
X10566905Y-18651286D01*
X10605000Y-18651286D01*
X10624048Y-18641762D01*
X10633571Y-18632238D01*
X10643095Y-18613190D01*
X10766905Y-18527476D02*
X10785952Y-18527476D01*
X10805000Y-18537000D01*
X10814524Y-18546524D01*
X10824048Y-18565571D01*
X10833571Y-18603667D01*
X10833571Y-18651286D01*
X10824048Y-18689381D01*
X10814524Y-18708429D01*
X10805000Y-18717952D01*
X10785952Y-18727476D01*
X10766905Y-18727476D01*
X10747857Y-18717952D01*
X10738333Y-18708429D01*
X10728810Y-18689381D01*
X10719286Y-18651286D01*
X10719286Y-18603667D01*
X10728810Y-18565571D01*
X10738333Y-18546524D01*
X10747857Y-18537000D01*
X10766905Y-18527476D01*
X10957381Y-18527476D02*
X10976429Y-18527476D01*
X10995476Y-18537000D01*
X11005000Y-18546524D01*
X11014524Y-18565571D01*
X11024048Y-18603667D01*
X11024048Y-18651286D01*
X11014524Y-18689381D01*
X11005000Y-18708429D01*
X10995476Y-18717952D01*
X10976429Y-18727476D01*
X10957381Y-18727476D01*
X10938333Y-18717952D01*
X10928810Y-18708429D01*
X10919286Y-18689381D01*
X10909762Y-18651286D01*
X10909762Y-18603667D01*
X10919286Y-18565571D01*
X10928810Y-18546524D01*
X10938333Y-18537000D01*
X10957381Y-18527476D01*
X11109762Y-18727476D02*
X11109762Y-18594143D01*
X11109762Y-18613190D02*
X11119286Y-18603667D01*
X11138333Y-18594143D01*
X11166905Y-18594143D01*
X11185952Y-18603667D01*
X11195476Y-18622714D01*
X11195476Y-18727476D01*
X11195476Y-18622714D02*
X11205000Y-18603667D01*
X11224048Y-18594143D01*
X11252619Y-18594143D01*
X11271667Y-18603667D01*
X11281190Y-18622714D01*
X11281190Y-18727476D01*
X11376428Y-18727476D02*
X11376428Y-18594143D01*
X11376428Y-18613190D02*
X11385952Y-18603667D01*
X11405000Y-18594143D01*
X11433571Y-18594143D01*
X11452619Y-18603667D01*
X11462143Y-18622714D01*
X11462143Y-18727476D01*
X11462143Y-18622714D02*
X11471667Y-18603667D01*
X11490714Y-18594143D01*
X11519286Y-18594143D01*
X11538333Y-18603667D01*
X11547857Y-18622714D01*
X11547857Y-18727476D01*
X11938333Y-18517952D02*
X11766905Y-18775095D01*
X12195476Y-18527476D02*
X12214524Y-18527476D01*
X12233571Y-18537000D01*
X12243095Y-18546524D01*
X12252619Y-18565571D01*
X12262143Y-18603667D01*
X12262143Y-18651286D01*
X12252619Y-18689381D01*
X12243095Y-18708429D01*
X12233571Y-18717952D01*
X12214524Y-18727476D01*
X12195476Y-18727476D01*
X12176428Y-18717952D01*
X12166905Y-18708429D01*
X12157381Y-18689381D01*
X12147857Y-18651286D01*
X12147857Y-18603667D01*
X12157381Y-18565571D01*
X12166905Y-18546524D01*
X12176428Y-18537000D01*
X12195476Y-18527476D01*
X12347857Y-18708429D02*
X12357381Y-18717952D01*
X12347857Y-18727476D01*
X12338333Y-18717952D01*
X12347857Y-18708429D01*
X12347857Y-18727476D01*
X12481190Y-18527476D02*
X12500238Y-18527476D01*
X12519286Y-18537000D01*
X12528809Y-18546524D01*
X12538333Y-18565571D01*
X12547857Y-18603667D01*
X12547857Y-18651286D01*
X12538333Y-18689381D01*
X12528809Y-18708429D01*
X12519286Y-18717952D01*
X12500238Y-18727476D01*
X12481190Y-18727476D01*
X12462143Y-18717952D01*
X12452619Y-18708429D01*
X12443095Y-18689381D01*
X12433571Y-18651286D01*
X12433571Y-18603667D01*
X12443095Y-18565571D01*
X12452619Y-18546524D01*
X12462143Y-18537000D01*
X12481190Y-18527476D01*
X12614524Y-18527476D02*
X12738333Y-18527476D01*
X12671667Y-18603667D01*
X12700238Y-18603667D01*
X12719286Y-18613190D01*
X12728809Y-18622714D01*
X12738333Y-18641762D01*
X12738333Y-18689381D01*
X12728809Y-18708429D01*
X12719286Y-18717952D01*
X12700238Y-18727476D01*
X12643095Y-18727476D01*
X12624048Y-18717952D01*
X12614524Y-18708429D01*
X12919286Y-18527476D02*
X12824048Y-18527476D01*
X12814524Y-18622714D01*
X12824048Y-18613190D01*
X12843095Y-18603667D01*
X12890714Y-18603667D01*
X12909762Y-18613190D01*
X12919286Y-18622714D01*
X12928809Y-18641762D01*
X12928809Y-18689381D01*
X12919286Y-18708429D01*
X12909762Y-18717952D01*
X12890714Y-18727476D01*
X12843095Y-18727476D01*
X12824048Y-18717952D01*
X12814524Y-18708429D01*
X13100238Y-18594143D02*
X13100238Y-18727476D01*
X13052619Y-18517952D02*
X13005000Y-18660810D01*
X13128809Y-18660810D01*
X13195476Y-18527476D02*
X13195476Y-18565571D01*
X13271667Y-18527476D02*
X13271667Y-18565571D01*
X13566905Y-18803667D02*
X13557381Y-18794143D01*
X13538333Y-18765571D01*
X13528809Y-18746524D01*
X13519286Y-18717952D01*
X13509762Y-18670333D01*
X13509762Y-18632238D01*
X13519286Y-18584619D01*
X13528809Y-18556048D01*
X13538333Y-18537000D01*
X13557381Y-18508429D01*
X13566905Y-18498905D01*
X13633571Y-18546524D02*
X13643095Y-18537000D01*
X13662143Y-18527476D01*
X13709762Y-18527476D01*
X13728809Y-18537000D01*
X13738333Y-18546524D01*
X13747857Y-18565571D01*
X13747857Y-18584619D01*
X13738333Y-18613190D01*
X13624048Y-18727476D01*
X13747857Y-18727476D01*
X13985952Y-18727476D02*
X13985952Y-18527476D01*
X14071667Y-18727476D02*
X14071667Y-18622714D01*
X14062143Y-18603667D01*
X14043095Y-18594143D01*
X14014524Y-18594143D01*
X13995476Y-18603667D01*
X13985952Y-18613190D01*
X14195476Y-18727476D02*
X14176428Y-18717952D01*
X14166905Y-18708429D01*
X14157381Y-18689381D01*
X14157381Y-18632238D01*
X14166905Y-18613190D01*
X14176428Y-18603667D01*
X14195476Y-18594143D01*
X14224048Y-18594143D01*
X14243095Y-18603667D01*
X14252619Y-18613190D01*
X14262143Y-18632238D01*
X14262143Y-18689381D01*
X14252619Y-18708429D01*
X14243095Y-18717952D01*
X14224048Y-18727476D01*
X14195476Y-18727476D01*
X14376428Y-18727476D02*
X14357381Y-18717952D01*
X14347857Y-18698905D01*
X14347857Y-18527476D01*
X14528809Y-18717952D02*
X14509762Y-18727476D01*
X14471667Y-18727476D01*
X14452619Y-18717952D01*
X14443095Y-18698905D01*
X14443095Y-18622714D01*
X14452619Y-18603667D01*
X14471667Y-18594143D01*
X14509762Y-18594143D01*
X14528809Y-18603667D01*
X14538333Y-18622714D01*
X14538333Y-18641762D01*
X14443095Y-18660810D01*
X14614524Y-18717952D02*
X14633571Y-18727476D01*
X14671667Y-18727476D01*
X14690714Y-18717952D01*
X14700238Y-18698905D01*
X14700238Y-18689381D01*
X14690714Y-18670333D01*
X14671667Y-18660810D01*
X14643095Y-18660810D01*
X14624048Y-18651286D01*
X14614524Y-18632238D01*
X14614524Y-18622714D01*
X14624048Y-18603667D01*
X14643095Y-18594143D01*
X14671667Y-18594143D01*
X14690714Y-18603667D01*
X14766905Y-18803667D02*
X14776428Y-18794143D01*
X14795476Y-18765571D01*
X14805000Y-18746524D01*
X14814524Y-18717952D01*
X14824048Y-18670333D01*
X14824048Y-18632238D01*
X14814524Y-18584619D01*
X14805000Y-18556048D01*
X14795476Y-18537000D01*
X14776428Y-18508429D01*
X14766905Y-18498905D01*
D10*
X9945000Y-18951000D02*
X9995000Y-18901000D01*
X9945000Y-18851000D01*
X9895000Y-18901000D01*
X9945000Y-18951000D01*
D11*
X10357381Y-18991476D02*
X10243095Y-18991476D01*
X10300238Y-18991476D02*
X10300238Y-18791476D01*
X10281190Y-18820048D01*
X10262143Y-18839095D01*
X10243095Y-18848619D01*
X10443095Y-18972429D02*
X10452619Y-18981952D01*
X10443095Y-18991476D01*
X10433571Y-18981952D01*
X10443095Y-18972429D01*
X10443095Y-18991476D01*
X10576429Y-18791476D02*
X10595476Y-18791476D01*
X10614524Y-18801000D01*
X10624048Y-18810524D01*
X10633571Y-18829571D01*
X10643095Y-18867667D01*
X10643095Y-18915286D01*
X10633571Y-18953381D01*
X10624048Y-18972429D01*
X10614524Y-18981952D01*
X10595476Y-18991476D01*
X10576429Y-18991476D01*
X10557381Y-18981952D01*
X10547857Y-18972429D01*
X10538333Y-18953381D01*
X10528810Y-18915286D01*
X10528810Y-18867667D01*
X10538333Y-18829571D01*
X10547857Y-18810524D01*
X10557381Y-18801000D01*
X10576429Y-18791476D01*
X10766905Y-18791476D02*
X10785952Y-18791476D01*
X10805000Y-18801000D01*
X10814524Y-18810524D01*
X10824048Y-18829571D01*
X10833571Y-18867667D01*
X10833571Y-18915286D01*
X10824048Y-18953381D01*
X10814524Y-18972429D01*
X10805000Y-18981952D01*
X10785952Y-18991476D01*
X10766905Y-18991476D01*
X10747857Y-18981952D01*
X10738333Y-18972429D01*
X10728810Y-18953381D01*
X10719286Y-18915286D01*
X10719286Y-18867667D01*
X10728810Y-18829571D01*
X10738333Y-18810524D01*
X10747857Y-18801000D01*
X10766905Y-18791476D01*
X10957381Y-18791476D02*
X10976429Y-18791476D01*
X10995476Y-18801000D01*
X11005000Y-18810524D01*
X11014524Y-18829571D01*
X11024048Y-18867667D01*
X11024048Y-18915286D01*
X11014524Y-18953381D01*
X11005000Y-18972429D01*
X10995476Y-18981952D01*
X10976429Y-18991476D01*
X10957381Y-18991476D01*
X10938333Y-18981952D01*
X10928810Y-18972429D01*
X10919286Y-18953381D01*
X10909762Y-18915286D01*
X10909762Y-18867667D01*
X10919286Y-18829571D01*
X10928810Y-18810524D01*
X10938333Y-18801000D01*
X10957381Y-18791476D01*
X11109762Y-18991476D02*
X11109762Y-18858143D01*
X11109762Y-18877190D02*
X11119286Y-18867667D01*
X11138333Y-18858143D01*
X11166905Y-18858143D01*
X11185952Y-18867667D01*
X11195476Y-18886714D01*
X11195476Y-18991476D01*
X11195476Y-18886714D02*
X11205000Y-18867667D01*
X11224048Y-18858143D01*
X11252619Y-18858143D01*
X11271667Y-18867667D01*
X11281190Y-18886714D01*
X11281190Y-18991476D01*
X11376428Y-18991476D02*
X11376428Y-18858143D01*
X11376428Y-18877190D02*
X11385952Y-18867667D01*
X11405000Y-18858143D01*
X11433571Y-18858143D01*
X11452619Y-18867667D01*
X11462143Y-18886714D01*
X11462143Y-18991476D01*
X11462143Y-18886714D02*
X11471667Y-18867667D01*
X11490714Y-18858143D01*
X11519286Y-18858143D01*
X11538333Y-18867667D01*
X11547857Y-18886714D01*
X11547857Y-18991476D01*
X11938333Y-18781952D02*
X11766905Y-19039095D01*
X12195476Y-18791476D02*
X12214524Y-18791476D01*
X12233571Y-18801000D01*
X12243095Y-18810524D01*
X12252619Y-18829571D01*
X12262143Y-18867667D01*
X12262143Y-18915286D01*
X12252619Y-18953381D01*
X12243095Y-18972429D01*
X12233571Y-18981952D01*
X12214524Y-18991476D01*
X12195476Y-18991476D01*
X12176428Y-18981952D01*
X12166905Y-18972429D01*
X12157381Y-18953381D01*
X12147857Y-18915286D01*
X12147857Y-18867667D01*
X12157381Y-18829571D01*
X12166905Y-18810524D01*
X12176428Y-18801000D01*
X12195476Y-18791476D01*
X12347857Y-18972429D02*
X12357381Y-18981952D01*
X12347857Y-18991476D01*
X12338333Y-18981952D01*
X12347857Y-18972429D01*
X12347857Y-18991476D01*
X12481190Y-18791476D02*
X12500238Y-18791476D01*
X12519286Y-18801000D01*
X12528809Y-18810524D01*
X12538333Y-18829571D01*
X12547857Y-18867667D01*
X12547857Y-18915286D01*
X12538333Y-18953381D01*
X12528809Y-18972429D01*
X12519286Y-18981952D01*
X12500238Y-18991476D01*
X12481190Y-18991476D01*
X12462143Y-18981952D01*
X12452619Y-18972429D01*
X12443095Y-18953381D01*
X12433571Y-18915286D01*
X12433571Y-18867667D01*
X12443095Y-18829571D01*
X12452619Y-18810524D01*
X12462143Y-18801000D01*
X12481190Y-18791476D01*
X12614524Y-18791476D02*
X12738333Y-18791476D01*
X12671667Y-18867667D01*
X12700238Y-18867667D01*
X12719286Y-18877190D01*
X12728809Y-18886714D01*
X12738333Y-18905762D01*
X12738333Y-18953381D01*
X12728809Y-18972429D01*
X12719286Y-18981952D01*
X12700238Y-18991476D01*
X12643095Y-18991476D01*
X12624048Y-18981952D01*
X12614524Y-18972429D01*
X12833571Y-18991476D02*
X12871667Y-18991476D01*
X12890714Y-18981952D01*
X12900238Y-18972429D01*
X12919286Y-18943857D01*
X12928809Y-18905762D01*
X12928809Y-18829571D01*
X12919286Y-18810524D01*
X12909762Y-18801000D01*
X12890714Y-18791476D01*
X12852619Y-18791476D01*
X12833571Y-18801000D01*
X12824048Y-18810524D01*
X12814524Y-18829571D01*
X12814524Y-18877190D01*
X12824048Y-18896238D01*
X12833571Y-18905762D01*
X12852619Y-18915286D01*
X12890714Y-18915286D01*
X12909762Y-18905762D01*
X12919286Y-18896238D01*
X12928809Y-18877190D01*
X13100238Y-18858143D02*
X13100238Y-18991476D01*
X13052619Y-18781952D02*
X13005000Y-18924810D01*
X13128809Y-18924810D01*
X13195476Y-18791476D02*
X13195476Y-18829571D01*
X13271667Y-18791476D02*
X13271667Y-18829571D01*
X13566905Y-19067667D02*
X13557381Y-19058143D01*
X13538333Y-19029571D01*
X13528809Y-19010524D01*
X13519286Y-18981952D01*
X13509762Y-18934333D01*
X13509762Y-18896238D01*
X13519286Y-18848619D01*
X13528809Y-18820048D01*
X13538333Y-18801000D01*
X13557381Y-18772429D01*
X13566905Y-18762905D01*
X13728809Y-18791476D02*
X13690714Y-18791476D01*
X13671667Y-18801000D01*
X13662143Y-18810524D01*
X13643095Y-18839095D01*
X13633571Y-18877190D01*
X13633571Y-18953381D01*
X13643095Y-18972429D01*
X13652619Y-18981952D01*
X13671667Y-18991476D01*
X13709762Y-18991476D01*
X13728809Y-18981952D01*
X13738333Y-18972429D01*
X13747857Y-18953381D01*
X13747857Y-18905762D01*
X13738333Y-18886714D01*
X13728809Y-18877190D01*
X13709762Y-18867667D01*
X13671667Y-18867667D01*
X13652619Y-18877190D01*
X13643095Y-18886714D01*
X13633571Y-18905762D01*
X13928809Y-18791476D02*
X13833571Y-18791476D01*
X13824048Y-18886714D01*
X13833571Y-18877190D01*
X13852619Y-18867667D01*
X13900238Y-18867667D01*
X13919286Y-18877190D01*
X13928809Y-18886714D01*
X13938333Y-18905762D01*
X13938333Y-18953381D01*
X13928809Y-18972429D01*
X13919286Y-18981952D01*
X13900238Y-18991476D01*
X13852619Y-18991476D01*
X13833571Y-18981952D01*
X13824048Y-18972429D01*
X14176428Y-18991476D02*
X14176428Y-18791476D01*
X14262143Y-18991476D02*
X14262143Y-18886714D01*
X14252619Y-18867667D01*
X14233571Y-18858143D01*
X14205000Y-18858143D01*
X14185952Y-18867667D01*
X14176428Y-18877190D01*
X14385952Y-18991476D02*
X14366905Y-18981952D01*
X14357381Y-18972429D01*
X14347857Y-18953381D01*
X14347857Y-18896238D01*
X14357381Y-18877190D01*
X14366905Y-18867667D01*
X14385952Y-18858143D01*
X14414524Y-18858143D01*
X14433571Y-18867667D01*
X14443095Y-18877190D01*
X14452619Y-18896238D01*
X14452619Y-18953381D01*
X14443095Y-18972429D01*
X14433571Y-18981952D01*
X14414524Y-18991476D01*
X14385952Y-18991476D01*
X14566905Y-18991476D02*
X14547857Y-18981952D01*
X14538333Y-18962905D01*
X14538333Y-18791476D01*
X14719286Y-18981952D02*
X14700238Y-18991476D01*
X14662143Y-18991476D01*
X14643095Y-18981952D01*
X14633571Y-18962905D01*
X14633571Y-18886714D01*
X14643095Y-18867667D01*
X14662143Y-18858143D01*
X14700238Y-18858143D01*
X14719286Y-18867667D01*
X14728809Y-18886714D01*
X14728809Y-18905762D01*
X14633571Y-18924810D01*
X14805000Y-18981952D02*
X14824048Y-18991476D01*
X14862143Y-18991476D01*
X14881190Y-18981952D01*
X14890714Y-18962905D01*
X14890714Y-18953381D01*
X14881190Y-18934333D01*
X14862143Y-18924810D01*
X14833571Y-18924810D01*
X14814524Y-18915286D01*
X14805000Y-18896238D01*
X14805000Y-18886714D01*
X14814524Y-18867667D01*
X14833571Y-18858143D01*
X14862143Y-18858143D01*
X14881190Y-18867667D01*
X14957381Y-19067667D02*
X14966905Y-19058143D01*
X14985952Y-19029571D01*
X14995476Y-19010524D01*
X15005000Y-18981952D01*
X15014524Y-18934333D01*
X15014524Y-18896238D01*
X15005000Y-18848619D01*
X14995476Y-18820048D01*
X14985952Y-18801000D01*
X14966905Y-18772429D01*
X14957381Y-18762905D01*
D16*
X9885000Y-19110000D02*
X9995000Y-19220000D01*
X9995000Y-19110000D02*
X9885000Y-19220000D01*
X9995000Y-19165000D02*
G75*
G03*
X9995000Y-19165000I-55000J0D01*
G01*
D11*
X10357381Y-19255476D02*
X10243095Y-19255476D01*
X10300238Y-19255476D02*
X10300238Y-19055476D01*
X10281190Y-19084048D01*
X10262143Y-19103095D01*
X10243095Y-19112619D01*
X10443095Y-19236429D02*
X10452619Y-19245952D01*
X10443095Y-19255476D01*
X10433571Y-19245952D01*
X10443095Y-19236429D01*
X10443095Y-19255476D01*
X10643095Y-19255476D02*
X10528810Y-19255476D01*
X10585952Y-19255476D02*
X10585952Y-19055476D01*
X10566905Y-19084048D01*
X10547857Y-19103095D01*
X10528810Y-19112619D01*
X10766905Y-19055476D02*
X10785952Y-19055476D01*
X10805000Y-19065000D01*
X10814524Y-19074524D01*
X10824048Y-19093571D01*
X10833571Y-19131667D01*
X10833571Y-19179286D01*
X10824048Y-19217381D01*
X10814524Y-19236429D01*
X10805000Y-19245952D01*
X10785952Y-19255476D01*
X10766905Y-19255476D01*
X10747857Y-19245952D01*
X10738333Y-19236429D01*
X10728810Y-19217381D01*
X10719286Y-19179286D01*
X10719286Y-19131667D01*
X10728810Y-19093571D01*
X10738333Y-19074524D01*
X10747857Y-19065000D01*
X10766905Y-19055476D01*
X10957381Y-19055476D02*
X10976429Y-19055476D01*
X10995476Y-19065000D01*
X11005000Y-19074524D01*
X11014524Y-19093571D01*
X11024048Y-19131667D01*
X11024048Y-19179286D01*
X11014524Y-19217381D01*
X11005000Y-19236429D01*
X10995476Y-19245952D01*
X10976429Y-19255476D01*
X10957381Y-19255476D01*
X10938333Y-19245952D01*
X10928810Y-19236429D01*
X10919286Y-19217381D01*
X10909762Y-19179286D01*
X10909762Y-19131667D01*
X10919286Y-19093571D01*
X10928810Y-19074524D01*
X10938333Y-19065000D01*
X10957381Y-19055476D01*
X11109762Y-19255476D02*
X11109762Y-19122143D01*
X11109762Y-19141190D02*
X11119286Y-19131667D01*
X11138333Y-19122143D01*
X11166905Y-19122143D01*
X11185952Y-19131667D01*
X11195476Y-19150714D01*
X11195476Y-19255476D01*
X11195476Y-19150714D02*
X11205000Y-19131667D01*
X11224048Y-19122143D01*
X11252619Y-19122143D01*
X11271667Y-19131667D01*
X11281190Y-19150714D01*
X11281190Y-19255476D01*
X11376428Y-19255476D02*
X11376428Y-19122143D01*
X11376428Y-19141190D02*
X11385952Y-19131667D01*
X11405000Y-19122143D01*
X11433571Y-19122143D01*
X11452619Y-19131667D01*
X11462143Y-19150714D01*
X11462143Y-19255476D01*
X11462143Y-19150714D02*
X11471667Y-19131667D01*
X11490714Y-19122143D01*
X11519286Y-19122143D01*
X11538333Y-19131667D01*
X11547857Y-19150714D01*
X11547857Y-19255476D01*
X11938333Y-19045952D02*
X11766905Y-19303095D01*
X12195476Y-19055476D02*
X12214524Y-19055476D01*
X12233571Y-19065000D01*
X12243095Y-19074524D01*
X12252619Y-19093571D01*
X12262143Y-19131667D01*
X12262143Y-19179286D01*
X12252619Y-19217381D01*
X12243095Y-19236429D01*
X12233571Y-19245952D01*
X12214524Y-19255476D01*
X12195476Y-19255476D01*
X12176428Y-19245952D01*
X12166905Y-19236429D01*
X12157381Y-19217381D01*
X12147857Y-19179286D01*
X12147857Y-19131667D01*
X12157381Y-19093571D01*
X12166905Y-19074524D01*
X12176428Y-19065000D01*
X12195476Y-19055476D01*
X12347857Y-19236429D02*
X12357381Y-19245952D01*
X12347857Y-19255476D01*
X12338333Y-19245952D01*
X12347857Y-19236429D01*
X12347857Y-19255476D01*
X12481190Y-19055476D02*
X12500238Y-19055476D01*
X12519286Y-19065000D01*
X12528809Y-19074524D01*
X12538333Y-19093571D01*
X12547857Y-19131667D01*
X12547857Y-19179286D01*
X12538333Y-19217381D01*
X12528809Y-19236429D01*
X12519286Y-19245952D01*
X12500238Y-19255476D01*
X12481190Y-19255476D01*
X12462143Y-19245952D01*
X12452619Y-19236429D01*
X12443095Y-19217381D01*
X12433571Y-19179286D01*
X12433571Y-19131667D01*
X12443095Y-19093571D01*
X12452619Y-19074524D01*
X12462143Y-19065000D01*
X12481190Y-19055476D01*
X12719286Y-19122143D02*
X12719286Y-19255476D01*
X12671667Y-19045952D02*
X12624048Y-19188810D01*
X12747857Y-19188810D01*
X12805000Y-19055476D02*
X12928809Y-19055476D01*
X12862143Y-19131667D01*
X12890714Y-19131667D01*
X12909762Y-19141190D01*
X12919286Y-19150714D01*
X12928809Y-19169762D01*
X12928809Y-19217381D01*
X12919286Y-19236429D01*
X12909762Y-19245952D01*
X12890714Y-19255476D01*
X12833571Y-19255476D01*
X12814524Y-19245952D01*
X12805000Y-19236429D01*
X12995476Y-19055476D02*
X13119286Y-19055476D01*
X13052619Y-19131667D01*
X13081190Y-19131667D01*
X13100238Y-19141190D01*
X13109762Y-19150714D01*
X13119286Y-19169762D01*
X13119286Y-19217381D01*
X13109762Y-19236429D01*
X13100238Y-19245952D01*
X13081190Y-19255476D01*
X13024048Y-19255476D01*
X13005000Y-19245952D01*
X12995476Y-19236429D01*
X13195476Y-19055476D02*
X13195476Y-19093571D01*
X13271667Y-19055476D02*
X13271667Y-19093571D01*
X13566905Y-19331667D02*
X13557381Y-19322143D01*
X13538333Y-19293571D01*
X13528809Y-19274524D01*
X13519286Y-19245952D01*
X13509762Y-19198333D01*
X13509762Y-19160238D01*
X13519286Y-19112619D01*
X13528809Y-19084048D01*
X13538333Y-19065000D01*
X13557381Y-19036429D01*
X13566905Y-19026905D01*
X13738333Y-19055476D02*
X13643095Y-19055476D01*
X13633571Y-19150714D01*
X13643095Y-19141190D01*
X13662143Y-19131667D01*
X13709762Y-19131667D01*
X13728809Y-19141190D01*
X13738333Y-19150714D01*
X13747857Y-19169762D01*
X13747857Y-19217381D01*
X13738333Y-19236429D01*
X13728809Y-19245952D01*
X13709762Y-19255476D01*
X13662143Y-19255476D01*
X13643095Y-19245952D01*
X13633571Y-19236429D01*
X13985952Y-19255476D02*
X13985952Y-19055476D01*
X14071667Y-19255476D02*
X14071667Y-19150714D01*
X14062143Y-19131667D01*
X14043095Y-19122143D01*
X14014524Y-19122143D01*
X13995476Y-19131667D01*
X13985952Y-19141190D01*
X14195476Y-19255476D02*
X14176428Y-19245952D01*
X14166905Y-19236429D01*
X14157381Y-19217381D01*
X14157381Y-19160238D01*
X14166905Y-19141190D01*
X14176428Y-19131667D01*
X14195476Y-19122143D01*
X14224048Y-19122143D01*
X14243095Y-19131667D01*
X14252619Y-19141190D01*
X14262143Y-19160238D01*
X14262143Y-19217381D01*
X14252619Y-19236429D01*
X14243095Y-19245952D01*
X14224048Y-19255476D01*
X14195476Y-19255476D01*
X14376428Y-19255476D02*
X14357381Y-19245952D01*
X14347857Y-19226905D01*
X14347857Y-19055476D01*
X14528809Y-19245952D02*
X14509762Y-19255476D01*
X14471667Y-19255476D01*
X14452619Y-19245952D01*
X14443095Y-19226905D01*
X14443095Y-19150714D01*
X14452619Y-19131667D01*
X14471667Y-19122143D01*
X14509762Y-19122143D01*
X14528809Y-19131667D01*
X14538333Y-19150714D01*
X14538333Y-19169762D01*
X14443095Y-19188810D01*
X14614524Y-19245952D02*
X14633571Y-19255476D01*
X14671667Y-19255476D01*
X14690714Y-19245952D01*
X14700238Y-19226905D01*
X14700238Y-19217381D01*
X14690714Y-19198333D01*
X14671667Y-19188810D01*
X14643095Y-19188810D01*
X14624048Y-19179286D01*
X14614524Y-19160238D01*
X14614524Y-19150714D01*
X14624048Y-19131667D01*
X14643095Y-19122143D01*
X14671667Y-19122143D01*
X14690714Y-19131667D01*
X14766905Y-19331667D02*
X14776428Y-19322143D01*
X14795476Y-19293571D01*
X14805000Y-19274524D01*
X14814524Y-19245952D01*
X14824048Y-19198333D01*
X14824048Y-19160238D01*
X14814524Y-19112619D01*
X14805000Y-19084048D01*
X14795476Y-19065000D01*
X14776428Y-19036429D01*
X14766905Y-19026905D01*
D17*
X9875000Y-19369000D02*
X9995000Y-19489000D01*
X9995000Y-19369000D02*
X9875000Y-19489000D01*
X9935000Y-19369000D02*
X9935000Y-19489000D01*
X9875000Y-19429000D02*
X9995000Y-19429000D01*
D11*
X10357381Y-19519476D02*
X10243095Y-19519476D01*
X10300238Y-19519476D02*
X10300238Y-19319476D01*
X10281190Y-19348048D01*
X10262143Y-19367095D01*
X10243095Y-19376619D01*
X10443095Y-19500429D02*
X10452619Y-19509952D01*
X10443095Y-19519476D01*
X10433571Y-19509952D01*
X10443095Y-19500429D01*
X10443095Y-19519476D01*
X10528810Y-19338524D02*
X10538333Y-19329000D01*
X10557381Y-19319476D01*
X10605000Y-19319476D01*
X10624048Y-19329000D01*
X10633571Y-19338524D01*
X10643095Y-19357571D01*
X10643095Y-19376619D01*
X10633571Y-19405190D01*
X10519286Y-19519476D01*
X10643095Y-19519476D01*
X10766905Y-19319476D02*
X10785952Y-19319476D01*
X10805000Y-19329000D01*
X10814524Y-19338524D01*
X10824048Y-19357571D01*
X10833571Y-19395667D01*
X10833571Y-19443286D01*
X10824048Y-19481381D01*
X10814524Y-19500429D01*
X10805000Y-19509952D01*
X10785952Y-19519476D01*
X10766905Y-19519476D01*
X10747857Y-19509952D01*
X10738333Y-19500429D01*
X10728810Y-19481381D01*
X10719286Y-19443286D01*
X10719286Y-19395667D01*
X10728810Y-19357571D01*
X10738333Y-19338524D01*
X10747857Y-19329000D01*
X10766905Y-19319476D01*
X10957381Y-19319476D02*
X10976429Y-19319476D01*
X10995476Y-19329000D01*
X11005000Y-19338524D01*
X11014524Y-19357571D01*
X11024048Y-19395667D01*
X11024048Y-19443286D01*
X11014524Y-19481381D01*
X11005000Y-19500429D01*
X10995476Y-19509952D01*
X10976429Y-19519476D01*
X10957381Y-19519476D01*
X10938333Y-19509952D01*
X10928810Y-19500429D01*
X10919286Y-19481381D01*
X10909762Y-19443286D01*
X10909762Y-19395667D01*
X10919286Y-19357571D01*
X10928810Y-19338524D01*
X10938333Y-19329000D01*
X10957381Y-19319476D01*
X11109762Y-19519476D02*
X11109762Y-19386143D01*
X11109762Y-19405190D02*
X11119286Y-19395667D01*
X11138333Y-19386143D01*
X11166905Y-19386143D01*
X11185952Y-19395667D01*
X11195476Y-19414714D01*
X11195476Y-19519476D01*
X11195476Y-19414714D02*
X11205000Y-19395667D01*
X11224048Y-19386143D01*
X11252619Y-19386143D01*
X11271667Y-19395667D01*
X11281190Y-19414714D01*
X11281190Y-19519476D01*
X11376428Y-19519476D02*
X11376428Y-19386143D01*
X11376428Y-19405190D02*
X11385952Y-19395667D01*
X11405000Y-19386143D01*
X11433571Y-19386143D01*
X11452619Y-19395667D01*
X11462143Y-19414714D01*
X11462143Y-19519476D01*
X11462143Y-19414714D02*
X11471667Y-19395667D01*
X11490714Y-19386143D01*
X11519286Y-19386143D01*
X11538333Y-19395667D01*
X11547857Y-19414714D01*
X11547857Y-19519476D01*
X11938333Y-19309952D02*
X11766905Y-19567095D01*
X12195476Y-19319476D02*
X12214524Y-19319476D01*
X12233571Y-19329000D01*
X12243095Y-19338524D01*
X12252619Y-19357571D01*
X12262143Y-19395667D01*
X12262143Y-19443286D01*
X12252619Y-19481381D01*
X12243095Y-19500429D01*
X12233571Y-19509952D01*
X12214524Y-19519476D01*
X12195476Y-19519476D01*
X12176428Y-19509952D01*
X12166905Y-19500429D01*
X12157381Y-19481381D01*
X12147857Y-19443286D01*
X12147857Y-19395667D01*
X12157381Y-19357571D01*
X12166905Y-19338524D01*
X12176428Y-19329000D01*
X12195476Y-19319476D01*
X12347857Y-19500429D02*
X12357381Y-19509952D01*
X12347857Y-19519476D01*
X12338333Y-19509952D01*
X12347857Y-19500429D01*
X12347857Y-19519476D01*
X12481190Y-19319476D02*
X12500238Y-19319476D01*
X12519286Y-19329000D01*
X12528809Y-19338524D01*
X12538333Y-19357571D01*
X12547857Y-19395667D01*
X12547857Y-19443286D01*
X12538333Y-19481381D01*
X12528809Y-19500429D01*
X12519286Y-19509952D01*
X12500238Y-19519476D01*
X12481190Y-19519476D01*
X12462143Y-19509952D01*
X12452619Y-19500429D01*
X12443095Y-19481381D01*
X12433571Y-19443286D01*
X12433571Y-19395667D01*
X12443095Y-19357571D01*
X12452619Y-19338524D01*
X12462143Y-19329000D01*
X12481190Y-19319476D01*
X12719286Y-19386143D02*
X12719286Y-19519476D01*
X12671667Y-19309952D02*
X12624048Y-19452810D01*
X12747857Y-19452810D01*
X12805000Y-19319476D02*
X12938333Y-19319476D01*
X12852619Y-19519476D01*
X13005000Y-19338524D02*
X13014524Y-19329000D01*
X13033571Y-19319476D01*
X13081190Y-19319476D01*
X13100238Y-19329000D01*
X13109762Y-19338524D01*
X13119286Y-19357571D01*
X13119286Y-19376619D01*
X13109762Y-19405190D01*
X12995476Y-19519476D01*
X13119286Y-19519476D01*
X13195476Y-19319476D02*
X13195476Y-19357571D01*
X13271667Y-19319476D02*
X13271667Y-19357571D01*
X13566905Y-19595667D02*
X13557381Y-19586143D01*
X13538333Y-19557571D01*
X13528809Y-19538524D01*
X13519286Y-19509952D01*
X13509762Y-19462333D01*
X13509762Y-19424238D01*
X13519286Y-19376619D01*
X13528809Y-19348048D01*
X13538333Y-19329000D01*
X13557381Y-19300429D01*
X13566905Y-19290905D01*
X13633571Y-19338524D02*
X13643095Y-19329000D01*
X13662143Y-19319476D01*
X13709762Y-19319476D01*
X13728809Y-19329000D01*
X13738333Y-19338524D01*
X13747857Y-19357571D01*
X13747857Y-19376619D01*
X13738333Y-19405190D01*
X13624048Y-19519476D01*
X13747857Y-19519476D01*
X13985952Y-19519476D02*
X13985952Y-19319476D01*
X14071667Y-19519476D02*
X14071667Y-19414714D01*
X14062143Y-19395667D01*
X14043095Y-19386143D01*
X14014524Y-19386143D01*
X13995476Y-19395667D01*
X13985952Y-19405190D01*
X14195476Y-19519476D02*
X14176428Y-19509952D01*
X14166905Y-19500429D01*
X14157381Y-19481381D01*
X14157381Y-19424238D01*
X14166905Y-19405190D01*
X14176428Y-19395667D01*
X14195476Y-19386143D01*
X14224048Y-19386143D01*
X14243095Y-19395667D01*
X14252619Y-19405190D01*
X14262143Y-19424238D01*
X14262143Y-19481381D01*
X14252619Y-19500429D01*
X14243095Y-19509952D01*
X14224048Y-19519476D01*
X14195476Y-19519476D01*
X14376428Y-19519476D02*
X14357381Y-19509952D01*
X14347857Y-19490905D01*
X14347857Y-19319476D01*
X14528809Y-19509952D02*
X14509762Y-19519476D01*
X14471667Y-19519476D01*
X14452619Y-19509952D01*
X14443095Y-19490905D01*
X14443095Y-19414714D01*
X14452619Y-19395667D01*
X14471667Y-19386143D01*
X14509762Y-19386143D01*
X14528809Y-19395667D01*
X14538333Y-19414714D01*
X14538333Y-19433762D01*
X14443095Y-19452810D01*
X14614524Y-19509952D02*
X14633571Y-19519476D01*
X14671667Y-19519476D01*
X14690714Y-19509952D01*
X14700238Y-19490905D01*
X14700238Y-19481381D01*
X14690714Y-19462333D01*
X14671667Y-19452810D01*
X14643095Y-19452810D01*
X14624048Y-19443286D01*
X14614524Y-19424238D01*
X14614524Y-19414714D01*
X14624048Y-19395667D01*
X14643095Y-19386143D01*
X14671667Y-19386143D01*
X14690714Y-19395667D01*
X14766905Y-19595667D02*
X14776428Y-19586143D01*
X14795476Y-19557571D01*
X14805000Y-19538524D01*
X14814524Y-19509952D01*
X14824048Y-19462333D01*
X14824048Y-19424238D01*
X14814524Y-19376619D01*
X14805000Y-19348048D01*
X14795476Y-19329000D01*
X14776428Y-19300429D01*
X14766905Y-19290905D01*
D18*
X9865460Y-19628230D02*
X9995000Y-19757770D01*
X9995000Y-19628230D02*
X9865460Y-19757770D01*
X9976030Y-19738800D02*
X9976030Y-19647200D01*
X9884430Y-19647200D01*
X9884430Y-19738800D01*
X9976030Y-19738800D01*
D11*
X10357381Y-19783476D02*
X10243095Y-19783476D01*
X10300238Y-19783476D02*
X10300238Y-19583476D01*
X10281190Y-19612048D01*
X10262143Y-19631095D01*
X10243095Y-19640619D01*
X10443095Y-19764429D02*
X10452619Y-19773952D01*
X10443095Y-19783476D01*
X10433571Y-19773952D01*
X10443095Y-19764429D01*
X10443095Y-19783476D01*
X10528810Y-19602524D02*
X10538333Y-19593000D01*
X10557381Y-19583476D01*
X10605000Y-19583476D01*
X10624048Y-19593000D01*
X10633571Y-19602524D01*
X10643095Y-19621571D01*
X10643095Y-19640619D01*
X10633571Y-19669190D01*
X10519286Y-19783476D01*
X10643095Y-19783476D01*
X10738333Y-19783476D02*
X10776429Y-19783476D01*
X10795476Y-19773952D01*
X10805000Y-19764429D01*
X10824048Y-19735857D01*
X10833571Y-19697762D01*
X10833571Y-19621571D01*
X10824048Y-19602524D01*
X10814524Y-19593000D01*
X10795476Y-19583476D01*
X10757381Y-19583476D01*
X10738333Y-19593000D01*
X10728810Y-19602524D01*
X10719286Y-19621571D01*
X10719286Y-19669190D01*
X10728810Y-19688238D01*
X10738333Y-19697762D01*
X10757381Y-19707286D01*
X10795476Y-19707286D01*
X10814524Y-19697762D01*
X10824048Y-19688238D01*
X10833571Y-19669190D01*
X11014524Y-19583476D02*
X10919286Y-19583476D01*
X10909762Y-19678714D01*
X10919286Y-19669190D01*
X10938333Y-19659667D01*
X10985952Y-19659667D01*
X11005000Y-19669190D01*
X11014524Y-19678714D01*
X11024048Y-19697762D01*
X11024048Y-19745381D01*
X11014524Y-19764429D01*
X11005000Y-19773952D01*
X10985952Y-19783476D01*
X10938333Y-19783476D01*
X10919286Y-19773952D01*
X10909762Y-19764429D01*
X11109762Y-19783476D02*
X11109762Y-19650143D01*
X11109762Y-19669190D02*
X11119286Y-19659667D01*
X11138333Y-19650143D01*
X11166905Y-19650143D01*
X11185952Y-19659667D01*
X11195476Y-19678714D01*
X11195476Y-19783476D01*
X11195476Y-19678714D02*
X11205000Y-19659667D01*
X11224048Y-19650143D01*
X11252619Y-19650143D01*
X11271667Y-19659667D01*
X11281190Y-19678714D01*
X11281190Y-19783476D01*
X11376428Y-19783476D02*
X11376428Y-19650143D01*
X11376428Y-19669190D02*
X11385952Y-19659667D01*
X11405000Y-19650143D01*
X11433571Y-19650143D01*
X11452619Y-19659667D01*
X11462143Y-19678714D01*
X11462143Y-19783476D01*
X11462143Y-19678714D02*
X11471667Y-19659667D01*
X11490714Y-19650143D01*
X11519286Y-19650143D01*
X11538333Y-19659667D01*
X11547857Y-19678714D01*
X11547857Y-19783476D01*
X11938333Y-19573952D02*
X11766905Y-19831095D01*
X12195476Y-19583476D02*
X12214524Y-19583476D01*
X12233571Y-19593000D01*
X12243095Y-19602524D01*
X12252619Y-19621571D01*
X12262143Y-19659667D01*
X12262143Y-19707286D01*
X12252619Y-19745381D01*
X12243095Y-19764429D01*
X12233571Y-19773952D01*
X12214524Y-19783476D01*
X12195476Y-19783476D01*
X12176428Y-19773952D01*
X12166905Y-19764429D01*
X12157381Y-19745381D01*
X12147857Y-19707286D01*
X12147857Y-19659667D01*
X12157381Y-19621571D01*
X12166905Y-19602524D01*
X12176428Y-19593000D01*
X12195476Y-19583476D01*
X12347857Y-19764429D02*
X12357381Y-19773952D01*
X12347857Y-19783476D01*
X12338333Y-19773952D01*
X12347857Y-19764429D01*
X12347857Y-19783476D01*
X12481190Y-19583476D02*
X12500238Y-19583476D01*
X12519286Y-19593000D01*
X12528809Y-19602524D01*
X12538333Y-19621571D01*
X12547857Y-19659667D01*
X12547857Y-19707286D01*
X12538333Y-19745381D01*
X12528809Y-19764429D01*
X12519286Y-19773952D01*
X12500238Y-19783476D01*
X12481190Y-19783476D01*
X12462143Y-19773952D01*
X12452619Y-19764429D01*
X12443095Y-19745381D01*
X12433571Y-19707286D01*
X12433571Y-19659667D01*
X12443095Y-19621571D01*
X12452619Y-19602524D01*
X12462143Y-19593000D01*
X12481190Y-19583476D01*
X12728809Y-19583476D02*
X12633571Y-19583476D01*
X12624048Y-19678714D01*
X12633571Y-19669190D01*
X12652619Y-19659667D01*
X12700238Y-19659667D01*
X12719286Y-19669190D01*
X12728809Y-19678714D01*
X12738333Y-19697762D01*
X12738333Y-19745381D01*
X12728809Y-19764429D01*
X12719286Y-19773952D01*
X12700238Y-19783476D01*
X12652619Y-19783476D01*
X12633571Y-19773952D01*
X12624048Y-19764429D01*
X12928809Y-19783476D02*
X12814524Y-19783476D01*
X12871667Y-19783476D02*
X12871667Y-19583476D01*
X12852619Y-19612048D01*
X12833571Y-19631095D01*
X12814524Y-19640619D01*
X13052619Y-19583476D02*
X13071667Y-19583476D01*
X13090714Y-19593000D01*
X13100238Y-19602524D01*
X13109762Y-19621571D01*
X13119286Y-19659667D01*
X13119286Y-19707286D01*
X13109762Y-19745381D01*
X13100238Y-19764429D01*
X13090714Y-19773952D01*
X13071667Y-19783476D01*
X13052619Y-19783476D01*
X13033571Y-19773952D01*
X13024048Y-19764429D01*
X13014524Y-19745381D01*
X13005000Y-19707286D01*
X13005000Y-19659667D01*
X13014524Y-19621571D01*
X13024048Y-19602524D01*
X13033571Y-19593000D01*
X13052619Y-19583476D01*
X13195476Y-19583476D02*
X13195476Y-19621571D01*
X13271667Y-19583476D02*
X13271667Y-19621571D01*
X13566905Y-19859667D02*
X13557381Y-19850143D01*
X13538333Y-19821571D01*
X13528809Y-19802524D01*
X13519286Y-19773952D01*
X13509762Y-19726333D01*
X13509762Y-19688238D01*
X13519286Y-19640619D01*
X13528809Y-19612048D01*
X13538333Y-19593000D01*
X13557381Y-19564429D01*
X13566905Y-19554905D01*
X13728809Y-19650143D02*
X13728809Y-19783476D01*
X13681190Y-19573952D02*
X13633571Y-19716810D01*
X13757381Y-19716810D01*
X13985952Y-19783476D02*
X13985952Y-19583476D01*
X14071667Y-19783476D02*
X14071667Y-19678714D01*
X14062143Y-19659667D01*
X14043095Y-19650143D01*
X14014524Y-19650143D01*
X13995476Y-19659667D01*
X13985952Y-19669190D01*
X14195476Y-19783476D02*
X14176428Y-19773952D01*
X14166905Y-19764429D01*
X14157381Y-19745381D01*
X14157381Y-19688238D01*
X14166905Y-19669190D01*
X14176428Y-19659667D01*
X14195476Y-19650143D01*
X14224048Y-19650143D01*
X14243095Y-19659667D01*
X14252619Y-19669190D01*
X14262143Y-19688238D01*
X14262143Y-19745381D01*
X14252619Y-19764429D01*
X14243095Y-19773952D01*
X14224048Y-19783476D01*
X14195476Y-19783476D01*
X14376428Y-19783476D02*
X14357381Y-19773952D01*
X14347857Y-19754905D01*
X14347857Y-19583476D01*
X14528809Y-19773952D02*
X14509762Y-19783476D01*
X14471667Y-19783476D01*
X14452619Y-19773952D01*
X14443095Y-19754905D01*
X14443095Y-19678714D01*
X14452619Y-19659667D01*
X14471667Y-19650143D01*
X14509762Y-19650143D01*
X14528809Y-19659667D01*
X14538333Y-19678714D01*
X14538333Y-19697762D01*
X14443095Y-19716810D01*
X14614524Y-19773952D02*
X14633571Y-19783476D01*
X14671667Y-19783476D01*
X14690714Y-19773952D01*
X14700238Y-19754905D01*
X14700238Y-19745381D01*
X14690714Y-19726333D01*
X14671667Y-19716810D01*
X14643095Y-19716810D01*
X14624048Y-19707286D01*
X14614524Y-19688238D01*
X14614524Y-19678714D01*
X14624048Y-19659667D01*
X14643095Y-19650143D01*
X14671667Y-19650143D01*
X14690714Y-19659667D01*
X14766905Y-19859667D02*
X14776428Y-19850143D01*
X14795476Y-19821571D01*
X14805000Y-19802524D01*
X14814524Y-19773952D01*
X14824048Y-19726333D01*
X14824048Y-19688238D01*
X14814524Y-19640619D01*
X14805000Y-19612048D01*
X14795476Y-19593000D01*
X14776428Y-19564429D01*
X14766905Y-19554905D01*
X9795000Y-19857000D02*
X9995000Y-20057000D01*
X9995000Y-19857000D02*
X9795000Y-20057000D01*
X9895000Y-20057000D02*
X9995000Y-19957000D01*
X9895000Y-19857000D01*
X9795000Y-19957000D01*
X9895000Y-20057000D01*
X10243095Y-19866524D02*
X10252619Y-19857000D01*
X10271667Y-19847476D01*
X10319286Y-19847476D01*
X10338333Y-19857000D01*
X10347857Y-19866524D01*
X10357381Y-19885571D01*
X10357381Y-19904619D01*
X10347857Y-19933190D01*
X10233571Y-20047476D01*
X10357381Y-20047476D01*
X10443095Y-20028429D02*
X10452619Y-20037952D01*
X10443095Y-20047476D01*
X10433571Y-20037952D01*
X10443095Y-20028429D01*
X10443095Y-20047476D01*
X10576429Y-19847476D02*
X10595476Y-19847476D01*
X10614524Y-19857000D01*
X10624048Y-19866524D01*
X10633571Y-19885571D01*
X10643095Y-19923667D01*
X10643095Y-19971286D01*
X10633571Y-20009381D01*
X10624048Y-20028429D01*
X10614524Y-20037952D01*
X10595476Y-20047476D01*
X10576429Y-20047476D01*
X10557381Y-20037952D01*
X10547857Y-20028429D01*
X10538333Y-20009381D01*
X10528810Y-19971286D01*
X10528810Y-19923667D01*
X10538333Y-19885571D01*
X10547857Y-19866524D01*
X10557381Y-19857000D01*
X10576429Y-19847476D01*
X10766905Y-19847476D02*
X10785952Y-19847476D01*
X10805000Y-19857000D01*
X10814524Y-19866524D01*
X10824048Y-19885571D01*
X10833571Y-19923667D01*
X10833571Y-19971286D01*
X10824048Y-20009381D01*
X10814524Y-20028429D01*
X10805000Y-20037952D01*
X10785952Y-20047476D01*
X10766905Y-20047476D01*
X10747857Y-20037952D01*
X10738333Y-20028429D01*
X10728810Y-20009381D01*
X10719286Y-19971286D01*
X10719286Y-19923667D01*
X10728810Y-19885571D01*
X10738333Y-19866524D01*
X10747857Y-19857000D01*
X10766905Y-19847476D01*
X10957381Y-19847476D02*
X10976429Y-19847476D01*
X10995476Y-19857000D01*
X11005000Y-19866524D01*
X11014524Y-19885571D01*
X11024048Y-19923667D01*
X11024048Y-19971286D01*
X11014524Y-20009381D01*
X11005000Y-20028429D01*
X10995476Y-20037952D01*
X10976429Y-20047476D01*
X10957381Y-20047476D01*
X10938333Y-20037952D01*
X10928810Y-20028429D01*
X10919286Y-20009381D01*
X10909762Y-19971286D01*
X10909762Y-19923667D01*
X10919286Y-19885571D01*
X10928810Y-19866524D01*
X10938333Y-19857000D01*
X10957381Y-19847476D01*
X11109762Y-20047476D02*
X11109762Y-19914143D01*
X11109762Y-19933190D02*
X11119286Y-19923667D01*
X11138333Y-19914143D01*
X11166905Y-19914143D01*
X11185952Y-19923667D01*
X11195476Y-19942714D01*
X11195476Y-20047476D01*
X11195476Y-19942714D02*
X11205000Y-19923667D01*
X11224048Y-19914143D01*
X11252619Y-19914143D01*
X11271667Y-19923667D01*
X11281190Y-19942714D01*
X11281190Y-20047476D01*
X11376428Y-20047476D02*
X11376428Y-19914143D01*
X11376428Y-19933190D02*
X11385952Y-19923667D01*
X11405000Y-19914143D01*
X11433571Y-19914143D01*
X11452619Y-19923667D01*
X11462143Y-19942714D01*
X11462143Y-20047476D01*
X11462143Y-19942714D02*
X11471667Y-19923667D01*
X11490714Y-19914143D01*
X11519286Y-19914143D01*
X11538333Y-19923667D01*
X11547857Y-19942714D01*
X11547857Y-20047476D01*
X11938333Y-19837952D02*
X11766905Y-20095095D01*
X12195476Y-19847476D02*
X12214524Y-19847476D01*
X12233571Y-19857000D01*
X12243095Y-19866524D01*
X12252619Y-19885571D01*
X12262143Y-19923667D01*
X12262143Y-19971286D01*
X12252619Y-20009381D01*
X12243095Y-20028429D01*
X12233571Y-20037952D01*
X12214524Y-20047476D01*
X12195476Y-20047476D01*
X12176428Y-20037952D01*
X12166905Y-20028429D01*
X12157381Y-20009381D01*
X12147857Y-19971286D01*
X12147857Y-19923667D01*
X12157381Y-19885571D01*
X12166905Y-19866524D01*
X12176428Y-19857000D01*
X12195476Y-19847476D01*
X12347857Y-20028429D02*
X12357381Y-20037952D01*
X12347857Y-20047476D01*
X12338333Y-20037952D01*
X12347857Y-20028429D01*
X12347857Y-20047476D01*
X12481190Y-19847476D02*
X12500238Y-19847476D01*
X12519286Y-19857000D01*
X12528809Y-19866524D01*
X12538333Y-19885571D01*
X12547857Y-19923667D01*
X12547857Y-19971286D01*
X12538333Y-20009381D01*
X12528809Y-20028429D01*
X12519286Y-20037952D01*
X12500238Y-20047476D01*
X12481190Y-20047476D01*
X12462143Y-20037952D01*
X12452619Y-20028429D01*
X12443095Y-20009381D01*
X12433571Y-19971286D01*
X12433571Y-19923667D01*
X12443095Y-19885571D01*
X12452619Y-19866524D01*
X12462143Y-19857000D01*
X12481190Y-19847476D01*
X12614524Y-19847476D02*
X12747857Y-19847476D01*
X12662143Y-20047476D01*
X12852619Y-19933190D02*
X12833571Y-19923667D01*
X12824048Y-19914143D01*
X12814524Y-19895095D01*
X12814524Y-19885571D01*
X12824048Y-19866524D01*
X12833571Y-19857000D01*
X12852619Y-19847476D01*
X12890714Y-19847476D01*
X12909762Y-19857000D01*
X12919286Y-19866524D01*
X12928809Y-19885571D01*
X12928809Y-19895095D01*
X12919286Y-19914143D01*
X12909762Y-19923667D01*
X12890714Y-19933190D01*
X12852619Y-19933190D01*
X12833571Y-19942714D01*
X12824048Y-19952238D01*
X12814524Y-19971286D01*
X12814524Y-20009381D01*
X12824048Y-20028429D01*
X12833571Y-20037952D01*
X12852619Y-20047476D01*
X12890714Y-20047476D01*
X12909762Y-20037952D01*
X12919286Y-20028429D01*
X12928809Y-20009381D01*
X12928809Y-19971286D01*
X12919286Y-19952238D01*
X12909762Y-19942714D01*
X12890714Y-19933190D01*
X12995476Y-19847476D02*
X13128809Y-19847476D01*
X13043095Y-20047476D01*
X13195476Y-19847476D02*
X13195476Y-19885571D01*
X13271667Y-19847476D02*
X13271667Y-19885571D01*
X13566905Y-20123667D02*
X13557381Y-20114143D01*
X13538333Y-20085571D01*
X13528809Y-20066524D01*
X13519286Y-20037952D01*
X13509762Y-19990333D01*
X13509762Y-19952238D01*
X13519286Y-19904619D01*
X13528809Y-19876048D01*
X13538333Y-19857000D01*
X13557381Y-19828429D01*
X13566905Y-19818905D01*
X13633571Y-19866524D02*
X13643095Y-19857000D01*
X13662143Y-19847476D01*
X13709762Y-19847476D01*
X13728809Y-19857000D01*
X13738333Y-19866524D01*
X13747857Y-19885571D01*
X13747857Y-19904619D01*
X13738333Y-19933190D01*
X13624048Y-20047476D01*
X13747857Y-20047476D01*
X13985952Y-20047476D02*
X13985952Y-19847476D01*
X14071667Y-20047476D02*
X14071667Y-19942714D01*
X14062143Y-19923667D01*
X14043095Y-19914143D01*
X14014524Y-19914143D01*
X13995476Y-19923667D01*
X13985952Y-19933190D01*
X14195476Y-20047476D02*
X14176428Y-20037952D01*
X14166905Y-20028429D01*
X14157381Y-20009381D01*
X14157381Y-19952238D01*
X14166905Y-19933190D01*
X14176428Y-19923667D01*
X14195476Y-19914143D01*
X14224048Y-19914143D01*
X14243095Y-19923667D01*
X14252619Y-19933190D01*
X14262143Y-19952238D01*
X14262143Y-20009381D01*
X14252619Y-20028429D01*
X14243095Y-20037952D01*
X14224048Y-20047476D01*
X14195476Y-20047476D01*
X14376428Y-20047476D02*
X14357381Y-20037952D01*
X14347857Y-20018905D01*
X14347857Y-19847476D01*
X14528809Y-20037952D02*
X14509762Y-20047476D01*
X14471667Y-20047476D01*
X14452619Y-20037952D01*
X14443095Y-20018905D01*
X14443095Y-19942714D01*
X14452619Y-19923667D01*
X14471667Y-19914143D01*
X14509762Y-19914143D01*
X14528809Y-19923667D01*
X14538333Y-19942714D01*
X14538333Y-19961762D01*
X14443095Y-19980810D01*
X14614524Y-20037952D02*
X14633571Y-20047476D01*
X14671667Y-20047476D01*
X14690714Y-20037952D01*
X14700238Y-20018905D01*
X14700238Y-20009381D01*
X14690714Y-19990333D01*
X14671667Y-19980810D01*
X14643095Y-19980810D01*
X14624048Y-19971286D01*
X14614524Y-19952238D01*
X14614524Y-19942714D01*
X14624048Y-19923667D01*
X14643095Y-19914143D01*
X14671667Y-19914143D01*
X14690714Y-19923667D01*
X14938333Y-19971286D02*
X15090714Y-19971286D01*
X15014524Y-20047476D02*
X15014524Y-19895095D01*
X15328809Y-19866524D02*
X15338333Y-19857000D01*
X15357381Y-19847476D01*
X15405000Y-19847476D01*
X15424048Y-19857000D01*
X15433571Y-19866524D01*
X15443095Y-19885571D01*
X15443095Y-19904619D01*
X15433571Y-19933190D01*
X15319286Y-20047476D01*
X15443095Y-20047476D01*
X15671667Y-20037952D02*
X15690714Y-20047476D01*
X15728809Y-20047476D01*
X15747857Y-20037952D01*
X15757381Y-20018905D01*
X15757381Y-20009381D01*
X15747857Y-19990333D01*
X15728809Y-19980810D01*
X15700238Y-19980810D01*
X15681190Y-19971286D01*
X15671667Y-19952238D01*
X15671667Y-19942714D01*
X15681190Y-19923667D01*
X15700238Y-19914143D01*
X15728809Y-19914143D01*
X15747857Y-19923667D01*
X15871667Y-20047476D02*
X15852619Y-20037952D01*
X15843095Y-20018905D01*
X15843095Y-19847476D01*
X15976428Y-20047476D02*
X15957381Y-20037952D01*
X15947857Y-20028429D01*
X15938333Y-20009381D01*
X15938333Y-19952238D01*
X15947857Y-19933190D01*
X15957381Y-19923667D01*
X15976428Y-19914143D01*
X16005000Y-19914143D01*
X16024048Y-19923667D01*
X16033571Y-19933190D01*
X16043095Y-19952238D01*
X16043095Y-20009381D01*
X16033571Y-20028429D01*
X16024048Y-20037952D01*
X16005000Y-20047476D01*
X15976428Y-20047476D01*
X16100238Y-19914143D02*
X16176428Y-19914143D01*
X16128809Y-19847476D02*
X16128809Y-20018905D01*
X16138333Y-20037952D01*
X16157381Y-20047476D01*
X16176428Y-20047476D01*
X16233571Y-20037952D02*
X16252619Y-20047476D01*
X16290714Y-20047476D01*
X16309762Y-20037952D01*
X16319286Y-20018905D01*
X16319286Y-20009381D01*
X16309762Y-19990333D01*
X16290714Y-19980810D01*
X16262143Y-19980810D01*
X16243095Y-19971286D01*
X16233571Y-19952238D01*
X16233571Y-19942714D01*
X16243095Y-19923667D01*
X16262143Y-19914143D01*
X16290714Y-19914143D01*
X16309762Y-19923667D01*
X16385952Y-20123667D02*
X16395476Y-20114143D01*
X16414524Y-20085571D01*
X16424048Y-20066524D01*
X16433571Y-20037952D01*
X16443095Y-19990333D01*
X16443095Y-19952238D01*
X16433571Y-19904619D01*
X16424048Y-19876048D01*
X16414524Y-19857000D01*
X16395476Y-19828429D01*
X16385952Y-19818905D01*
X9895000Y-20177000D02*
X9895000Y-20377000D01*
X9795000Y-20277000D02*
X9995000Y-20277000D01*
X9995000Y-20277000D02*
G75*
G03*
X9995000Y-20277000I-100000J0D01*
G01*
X10243095Y-20186524D02*
X10252619Y-20177000D01*
X10271667Y-20167476D01*
X10319286Y-20167476D01*
X10338333Y-20177000D01*
X10347857Y-20186524D01*
X10357381Y-20205571D01*
X10357381Y-20224619D01*
X10347857Y-20253190D01*
X10233571Y-20367476D01*
X10357381Y-20367476D01*
X10443095Y-20348429D02*
X10452619Y-20357952D01*
X10443095Y-20367476D01*
X10433571Y-20357952D01*
X10443095Y-20348429D01*
X10443095Y-20367476D01*
X10633571Y-20167476D02*
X10538333Y-20167476D01*
X10528810Y-20262714D01*
X10538333Y-20253190D01*
X10557381Y-20243667D01*
X10605000Y-20243667D01*
X10624048Y-20253190D01*
X10633571Y-20262714D01*
X10643095Y-20281762D01*
X10643095Y-20329381D01*
X10633571Y-20348429D01*
X10624048Y-20357952D01*
X10605000Y-20367476D01*
X10557381Y-20367476D01*
X10538333Y-20357952D01*
X10528810Y-20348429D01*
X10766905Y-20167476D02*
X10785952Y-20167476D01*
X10805000Y-20177000D01*
X10814524Y-20186524D01*
X10824048Y-20205571D01*
X10833571Y-20243667D01*
X10833571Y-20291286D01*
X10824048Y-20329381D01*
X10814524Y-20348429D01*
X10805000Y-20357952D01*
X10785952Y-20367476D01*
X10766905Y-20367476D01*
X10747857Y-20357952D01*
X10738333Y-20348429D01*
X10728810Y-20329381D01*
X10719286Y-20291286D01*
X10719286Y-20243667D01*
X10728810Y-20205571D01*
X10738333Y-20186524D01*
X10747857Y-20177000D01*
X10766905Y-20167476D01*
X10957381Y-20167476D02*
X10976429Y-20167476D01*
X10995476Y-20177000D01*
X11005000Y-20186524D01*
X11014524Y-20205571D01*
X11024048Y-20243667D01*
X11024048Y-20291286D01*
X11014524Y-20329381D01*
X11005000Y-20348429D01*
X10995476Y-20357952D01*
X10976429Y-20367476D01*
X10957381Y-20367476D01*
X10938333Y-20357952D01*
X10928810Y-20348429D01*
X10919286Y-20329381D01*
X10909762Y-20291286D01*
X10909762Y-20243667D01*
X10919286Y-20205571D01*
X10928810Y-20186524D01*
X10938333Y-20177000D01*
X10957381Y-20167476D01*
X11109762Y-20367476D02*
X11109762Y-20234143D01*
X11109762Y-20253190D02*
X11119286Y-20243667D01*
X11138333Y-20234143D01*
X11166905Y-20234143D01*
X11185952Y-20243667D01*
X11195476Y-20262714D01*
X11195476Y-20367476D01*
X11195476Y-20262714D02*
X11205000Y-20243667D01*
X11224048Y-20234143D01*
X11252619Y-20234143D01*
X11271667Y-20243667D01*
X11281190Y-20262714D01*
X11281190Y-20367476D01*
X11376428Y-20367476D02*
X11376428Y-20234143D01*
X11376428Y-20253190D02*
X11385952Y-20243667D01*
X11405000Y-20234143D01*
X11433571Y-20234143D01*
X11452619Y-20243667D01*
X11462143Y-20262714D01*
X11462143Y-20367476D01*
X11462143Y-20262714D02*
X11471667Y-20243667D01*
X11490714Y-20234143D01*
X11519286Y-20234143D01*
X11538333Y-20243667D01*
X11547857Y-20262714D01*
X11547857Y-20367476D01*
X11938333Y-20157952D02*
X11766905Y-20415095D01*
X12195476Y-20167476D02*
X12214524Y-20167476D01*
X12233571Y-20177000D01*
X12243095Y-20186524D01*
X12252619Y-20205571D01*
X12262143Y-20243667D01*
X12262143Y-20291286D01*
X12252619Y-20329381D01*
X12243095Y-20348429D01*
X12233571Y-20357952D01*
X12214524Y-20367476D01*
X12195476Y-20367476D01*
X12176428Y-20357952D01*
X12166905Y-20348429D01*
X12157381Y-20329381D01*
X12147857Y-20291286D01*
X12147857Y-20243667D01*
X12157381Y-20205571D01*
X12166905Y-20186524D01*
X12176428Y-20177000D01*
X12195476Y-20167476D01*
X12347857Y-20348429D02*
X12357381Y-20357952D01*
X12347857Y-20367476D01*
X12338333Y-20357952D01*
X12347857Y-20348429D01*
X12347857Y-20367476D01*
X12481190Y-20167476D02*
X12500238Y-20167476D01*
X12519286Y-20177000D01*
X12528809Y-20186524D01*
X12538333Y-20205571D01*
X12547857Y-20243667D01*
X12547857Y-20291286D01*
X12538333Y-20329381D01*
X12528809Y-20348429D01*
X12519286Y-20357952D01*
X12500238Y-20367476D01*
X12481190Y-20367476D01*
X12462143Y-20357952D01*
X12452619Y-20348429D01*
X12443095Y-20329381D01*
X12433571Y-20291286D01*
X12433571Y-20243667D01*
X12443095Y-20205571D01*
X12452619Y-20186524D01*
X12462143Y-20177000D01*
X12481190Y-20167476D01*
X12643095Y-20367476D02*
X12681190Y-20367476D01*
X12700238Y-20357952D01*
X12709762Y-20348429D01*
X12728809Y-20319857D01*
X12738333Y-20281762D01*
X12738333Y-20205571D01*
X12728809Y-20186524D01*
X12719286Y-20177000D01*
X12700238Y-20167476D01*
X12662143Y-20167476D01*
X12643095Y-20177000D01*
X12633571Y-20186524D01*
X12624048Y-20205571D01*
X12624048Y-20253190D01*
X12633571Y-20272238D01*
X12643095Y-20281762D01*
X12662143Y-20291286D01*
X12700238Y-20291286D01*
X12719286Y-20281762D01*
X12728809Y-20272238D01*
X12738333Y-20253190D01*
X12852619Y-20253190D02*
X12833571Y-20243667D01*
X12824048Y-20234143D01*
X12814524Y-20215095D01*
X12814524Y-20205571D01*
X12824048Y-20186524D01*
X12833571Y-20177000D01*
X12852619Y-20167476D01*
X12890714Y-20167476D01*
X12909762Y-20177000D01*
X12919286Y-20186524D01*
X12928809Y-20205571D01*
X12928809Y-20215095D01*
X12919286Y-20234143D01*
X12909762Y-20243667D01*
X12890714Y-20253190D01*
X12852619Y-20253190D01*
X12833571Y-20262714D01*
X12824048Y-20272238D01*
X12814524Y-20291286D01*
X12814524Y-20329381D01*
X12824048Y-20348429D01*
X12833571Y-20357952D01*
X12852619Y-20367476D01*
X12890714Y-20367476D01*
X12909762Y-20357952D01*
X12919286Y-20348429D01*
X12928809Y-20329381D01*
X12928809Y-20291286D01*
X12919286Y-20272238D01*
X12909762Y-20262714D01*
X12890714Y-20253190D01*
X13100238Y-20234143D02*
X13100238Y-20367476D01*
X13052619Y-20157952D02*
X13005000Y-20300810D01*
X13128809Y-20300810D01*
X13195476Y-20167476D02*
X13195476Y-20205571D01*
X13271667Y-20167476D02*
X13271667Y-20205571D01*
X13566905Y-20443667D02*
X13557381Y-20434143D01*
X13538333Y-20405571D01*
X13528809Y-20386524D01*
X13519286Y-20357952D01*
X13509762Y-20310333D01*
X13509762Y-20272238D01*
X13519286Y-20224619D01*
X13528809Y-20196048D01*
X13538333Y-20177000D01*
X13557381Y-20148429D01*
X13566905Y-20138905D01*
X13633571Y-20186524D02*
X13643095Y-20177000D01*
X13662143Y-20167476D01*
X13709762Y-20167476D01*
X13728809Y-20177000D01*
X13738333Y-20186524D01*
X13747857Y-20205571D01*
X13747857Y-20224619D01*
X13738333Y-20253190D01*
X13624048Y-20367476D01*
X13747857Y-20367476D01*
X13985952Y-20367476D02*
X13985952Y-20167476D01*
X14071667Y-20367476D02*
X14071667Y-20262714D01*
X14062143Y-20243667D01*
X14043095Y-20234143D01*
X14014524Y-20234143D01*
X13995476Y-20243667D01*
X13985952Y-20253190D01*
X14195476Y-20367476D02*
X14176428Y-20357952D01*
X14166905Y-20348429D01*
X14157381Y-20329381D01*
X14157381Y-20272238D01*
X14166905Y-20253190D01*
X14176428Y-20243667D01*
X14195476Y-20234143D01*
X14224048Y-20234143D01*
X14243095Y-20243667D01*
X14252619Y-20253190D01*
X14262143Y-20272238D01*
X14262143Y-20329381D01*
X14252619Y-20348429D01*
X14243095Y-20357952D01*
X14224048Y-20367476D01*
X14195476Y-20367476D01*
X14376428Y-20367476D02*
X14357381Y-20357952D01*
X14347857Y-20338905D01*
X14347857Y-20167476D01*
X14528809Y-20357952D02*
X14509762Y-20367476D01*
X14471667Y-20367476D01*
X14452619Y-20357952D01*
X14443095Y-20338905D01*
X14443095Y-20262714D01*
X14452619Y-20243667D01*
X14471667Y-20234143D01*
X14509762Y-20234143D01*
X14528809Y-20243667D01*
X14538333Y-20262714D01*
X14538333Y-20281762D01*
X14443095Y-20300810D01*
X14614524Y-20357952D02*
X14633571Y-20367476D01*
X14671667Y-20367476D01*
X14690714Y-20357952D01*
X14700238Y-20338905D01*
X14700238Y-20329381D01*
X14690714Y-20310333D01*
X14671667Y-20300810D01*
X14643095Y-20300810D01*
X14624048Y-20291286D01*
X14614524Y-20272238D01*
X14614524Y-20262714D01*
X14624048Y-20243667D01*
X14643095Y-20234143D01*
X14671667Y-20234143D01*
X14690714Y-20243667D01*
X14766905Y-20443667D02*
X14776428Y-20434143D01*
X14795476Y-20405571D01*
X14805000Y-20386524D01*
X14814524Y-20357952D01*
X14824048Y-20310333D01*
X14824048Y-20272238D01*
X14814524Y-20224619D01*
X14805000Y-20196048D01*
X14795476Y-20177000D01*
X14776428Y-20148429D01*
X14766905Y-20138905D01*
M02*
